<?xml version="1.0" encoding="UTF-8"?>
<!-- Generator: Adobe Illustrator 24.1.0, SVG Export Plug-In . SVG Version: 6.00 Build 0)  -->
<svg version="1.1" id="Livello_1" xmlns="http://www.w3.org/2000/svg" xmlns:xlink="http://www.w3.org/1999/xlink" x="0px" y="0px" width="23.23243px" height="23.2324px" viewBox="0 0 23.23243 23.2324" style="enable-background:new 0 0 23.23243 23.2324;" xml:space="preserve">
<style type="text/css">
	.st0{fill:#F3E9E0;}
	.st1{fill:#EEDBC8;}
	.st2{fill:#E5A97D;}
	.st3{fill:#DD8027;}
	.st4{fill:#FFFFFF;stroke:#1A1A1A;stroke-width:1.65;stroke-linecap:round;stroke-linejoin:round;stroke-miterlimit:10;}
	.st5{fill:none;stroke:#1A1A1A;stroke-width:1.65;stroke-linecap:round;stroke-linejoin:round;stroke-miterlimit:10;}
	.st6{fill:#DD8027;stroke:#1A1A1A;stroke-width:1.65;stroke-linecap:round;stroke-linejoin:round;stroke-miterlimit:10;}
	.st7{fill:none;stroke:#1A1A1A;stroke-width:1.65;stroke-linecap:round;stroke-linejoin:round;}
	.st8{fill:none;stroke:#1A1A1A;stroke-width:1.65;stroke-linecap:round;stroke-linejoin:round;stroke-dasharray:2.77761,2.77761;}
	.st9{fill:none;stroke:#1A1A1A;stroke-width:1.65;stroke-linecap:round;stroke-linejoin:round;stroke-dasharray:3.1675,3.1675;}
	.st10{fill:none;stroke:#1A1A1A;stroke-width:1.65;stroke-linecap:round;stroke-linejoin:round;stroke-dasharray:2.77767,2.77767;}
	.st11{fill:#E5A97D;stroke:#1A1A1A;stroke-width:1.65;stroke-linecap:round;stroke-linejoin:round;stroke-miterlimit:10;}

		.st12{fill:none;stroke:#1A1A1A;stroke-width:1.65;stroke-linecap:round;stroke-linejoin:round;stroke-miterlimit:10;stroke-dasharray:2.98442,2.98442;}
	.st13{fill:#1A1A1A;}
	.st14{opacity:0.4;fill:#DD8024;}
	.st15{fill:#FFFFFF;stroke:#FFFFFF;stroke-miterlimit:10;}
	.st16{fill:#DD8024;}
	.st17{fill:none;stroke:#C9C9C9;stroke-width:2;stroke-miterlimit:10;}
	.st18{fill:none;stroke:#DD8024;stroke-width:2;stroke-linecap:round;stroke-linejoin:round;stroke-miterlimit:10;}
	.st19{fill:#868686;}
	.st20{fill:none;stroke:#FFFFFF;stroke-width:2;stroke-linecap:round;stroke-linejoin:round;stroke-miterlimit:10;}
	.st21{fill:none;stroke:#000000;stroke-width:2;stroke-linecap:round;stroke-linejoin:round;stroke-miterlimit:10;}
	.st22{fill:#E1E1E5;}
	.st23{fill:#2287C1;}
	.st24{fill:#E3413D;}
	.st25{fill-rule:evenodd;clip-rule:evenodd;fill:#48A0DC;}
	.st26{fill:#FF9343;}
	.st27{fill-rule:evenodd;clip-rule:evenodd;fill:#2287C1;}
	.st28{fill:#FFFFFF;}
	.st29{fill:#B3B3B3;}
	.st30{fill-rule:evenodd;clip-rule:evenodd;fill:#FFFFFF;}
	.st31{fill-rule:evenodd;clip-rule:evenodd;fill:#B3B3B3;}
	.st32{fill-rule:evenodd;clip-rule:evenodd;fill:#CCCCCC;}
	.st33{fill-rule:evenodd;clip-rule:evenodd;fill:#E6E6E6;}
	.st34{fill:#EF483E;}
	.st35{opacity:0.1;}
	.st36{fill:none;stroke:#DD8024;stroke-width:1.36032;stroke-linecap:round;stroke-linejoin:round;stroke-miterlimit:10;}
	.st37{fill:#B0B0B0;}
	.st38{fill:none;stroke:#B0B0B0;stroke-width:2;stroke-linecap:round;stroke-linejoin:round;stroke-miterlimit:10;}
	.st39{fill:none;stroke:#DD8024;stroke-width:2;stroke-miterlimit:10;}
	.st40{fill:none;stroke:#B0B0B0;stroke-width:2;stroke-miterlimit:10;}
	.st41{fill:none;stroke:#8A8A8A;stroke-width:2;stroke-linecap:round;stroke-linejoin:round;stroke-miterlimit:10;}
	.st42{fill:none;stroke:#E38424;stroke-width:2;stroke-linecap:round;stroke-linejoin:round;stroke-miterlimit:10;}
	.st43{fill:none;stroke:#DD8024;stroke-miterlimit:10;}
</style>
<g>
	<g>
		<g>
			<defs>
				<path id="SVGID_3_" d="M6.81833,0.14255c-1.891,0.08533-3.52999,0.54766-4.85347,1.86555      C0.63676,3.3329,0.18024,4.97823,0.09466,6.84952c-0.05314,1.168-0.36407,9.99186,0.53753,12.30588      c0.60796,1.56121,1.80543,2.76147,3.38085,3.37139c0.73512,0.28594,1.57426,0.47964,2.80529,0.53614      c10.2929,0.46581,14.10837,0.21213,15.71733-3.90753c0.28548-0.73328,0.48198-1.57149,0.53632-2.79944      C23.54243,6.03666,22.99566,3.79984,21.20179,2.0081C19.77894,0.58876,18.10524-0.37742,6.81833,0.14255 M6.91309,20.98756      c-1.12695-0.05073-1.73843-0.23868-2.14642-0.39665c-1.02641-0.39895-1.79734-1.16683-2.19381-2.18722      C1.8863,16.64538,2.11396,8.29421,2.17525,6.94293c0.06009-1.32366,0.32823-2.53314,1.26216-3.46707      C4.59329,2.32286,6.08668,1.7579,16.25473,2.2168c1.32692,0.05995,2.53945,0.32745,3.47565,1.25907      c1.15588,1.15301,1.72917,2.65764,1.26223,12.78672c-0.05087,1.12415-0.23929,1.73407-0.39764,2.1411      C19.5489,21.08438,17.14243,21.45681,6.91309,20.98756 M16.36685,5.44748c0,0.76327,0.62069,1.38361,1.38701,1.38361      c0.76636,0,1.38822-0.62034,1.38822-1.38361c0-0.76331-0.62186-1.38357-1.38822-1.38357      C16.98755,4.06391,16.36685,4.68418,16.36685,5.44748 M5.64856,11.60214c0,3.26993,2.65732,5.92066,5.93533,5.92066      s5.93533-2.65073,5.93533-5.92066c0-3.26986-2.65732-5.91945-5.93533-5.91945S5.64856,8.33228,5.64856,11.60214       M7.73141,11.60214c0-2.1215,1.72456-3.84291,3.85248-3.84291c2.12795,0,3.85248,1.72141,3.85248,3.84291      c0,2.12267-1.72453,3.84411-3.85248,3.84411C9.45598,15.44625,7.73141,13.72481,7.73141,11.60214"/>
			</defs>
			<use xlink:href="#SVGID_3_" style="overflow:visible;fill-rule:evenodd;clip-rule:evenodd;fill:#ffffff;"/>
			<clipPath id="SVGID_2_">
				<use xlink:href="#SVGID_3_" style="overflow:visible;"/>
			</clipPath>
		</g>
	</g>
</g>
</svg>