<?xml version="1.0" encoding="UTF-8"?>
<!-- Generator: Adobe Illustrator 24.1.0, SVG Export Plug-In . SVG Version: 6.00 Build 0)  -->
<svg version="1.1" id="Livello_1" xmlns="http://www.w3.org/2000/svg" xmlns:xlink="http://www.w3.org/1999/xlink" x="0px" y="0px" width="62px" height="62px" viewBox="0 0 62 62" style="enable-background:new 0 0 62 62;" xml:space="preserve">
<style type="text/css">
	.st0{fill:#FFFFFF;}
	.st1{fill:url(#SVGID_1_);}
	.st2{fill:url(#SVGID_2_);}
	.st3{fill:url(#SVGID_3_);}
	.st4{fill:url(#SVGID_4_);}
	.st5{fill:url(#SVGID_5_);}
	.st6{fill:url(#SVGID_6_);}
	.st7{fill:url(#SVGID_7_);}
	.st8{fill:url(#SVGID_8_);}
	.st9{fill:url(#SVGID_9_);}
	.st10{fill:url(#SVGID_10_);}
	.st11{fill:url(#SVGID_11_);}
	.st12{fill:url(#SVGID_12_);}
	.st13{fill:url(#SVGID_13_);}
	.st14{fill:url(#SVGID_14_);}
	.st15{fill:url(#SVGID_15_);}
	.st16{fill:url(#SVGID_16_);}
	.st17{fill:url(#SVGID_17_);}
	.st18{fill:url(#SVGID_18_);}
	.st19{fill:url(#SVGID_19_);}
	.st20{fill:url(#SVGID_20_);}
	.st21{fill:url(#SVGID_21_);}
	.st22{fill:url(#SVGID_22_);}
	.st23{fill:url(#SVGID_23_);}
	.st24{fill:url(#SVGID_24_);}
	.st25{fill:url(#SVGID_25_);}
	.st26{fill:url(#SVGID_26_);}
	.st27{fill:url(#SVGID_27_);}
	.st28{fill:url(#SVGID_28_);}
	.st29{fill:url(#SVGID_29_);}
	.st30{fill:url(#SVGID_30_);}
	.st31{fill:url(#SVGID_31_);}
	.st32{fill:url(#SVGID_32_);}
	.st33{fill:url(#SVGID_33_);}
	.st34{fill:url(#SVGID_34_);}
	.st35{fill:url(#SVGID_35_);}
	.st36{fill:url(#SVGID_36_);}
	.st37{fill:url(#SVGID_37_);}
	.st38{fill:url(#SVGID_38_);}
	.st39{fill:url(#SVGID_39_);}
	.st40{fill:url(#SVGID_40_);}
	.st41{fill:url(#SVGID_41_);}
	.st42{fill:url(#SVGID_42_);}
	.st43{fill:url(#SVGID_43_);}
	.st44{fill:url(#SVGID_44_);}
	.st45{fill:url(#SVGID_45_);}
	.st46{fill:url(#SVGID_46_);}
	.st47{fill:url(#SVGID_47_);}
	.st48{fill:url(#SVGID_48_);}
	.st49{fill:url(#SVGID_49_);}
	.st50{fill:url(#SVGID_50_);}
	.st51{fill:url(#SVGID_51_);}
	.st52{fill:url(#SVGID_52_);}
	.st53{fill:url(#SVGID_53_);}
	.st54{fill:url(#SVGID_54_);}
	.st55{fill:url(#SVGID_55_);}
	.st56{fill:url(#SVGID_56_);}
	.st57{fill:url(#SVGID_57_);}
	.st58{fill:url(#SVGID_58_);}
	.st59{fill:url(#SVGID_59_);}
	.st60{fill:url(#SVGID_60_);}
	.st61{fill:url(#SVGID_61_);}
	.st62{fill:url(#SVGID_62_);}
	.st63{fill:url(#SVGID_63_);}
	.st64{fill:url(#SVGID_64_);}
	.st65{fill:url(#SVGID_65_);}
	.st66{fill:url(#SVGID_66_);}
	.st67{fill:url(#SVGID_67_);}
	.st68{fill:url(#SVGID_68_);}
	.st69{fill:url(#SVGID_69_);}
	.st70{fill:url(#SVGID_70_);}
	.st71{fill:url(#SVGID_71_);}
</style>
<g>
	<path class="st0" d="M52,62H10C4.4771523,62,0,57.5228462,0,52V10C0,4.4771523,4.4771523,0,10,0h42c5.5228462,0,10,4.4771523,10,10   v42C62,57.5228462,57.5228462,62,52,62z"/>
	<g>
		<linearGradient id="SVGID_1_" gradientUnits="userSpaceOnUse" x1="5.1985288" y1="56.6478806" x2="38.1183357" y2="23.7280712">
			<stop offset="0" style="stop-color:#0090CF"/>
			<stop offset="0.8456634" style="stop-color:#0071A1"/>
		</linearGradient>
		<path class="st1" d="M51.0357475,38.4237518c-0.415947-0.676487-1.1016541-1.0042915-1.8958855-1.3836441l-0.4809875-0.2324829    c-0.0522156-0.0259209-5.4497337-2.6829338-6.5229378-3.069664c-0.751236-0.2684021-2.5116119-0.8947983-3.7963409,1.0213776    l-2.1784592,2.6638107c-0.3906097,0.477684-1.0522423,0.6356163-1.6165161,0.385952l0,0    c-1.2868614-0.5528183-3.6829529-1.5815735-6.4913006-4.0633736c-1.9493713-1.7169838-3.4349384-3.7509041-4.2978973-5.0777626    c-0.3351841-0.5153484-0.2842159-1.1871719,0.1211452-1.6494236c0.1744347-0.1989937,0.344698-0.3991528,0.4863224-0.5703869    c0.1532745-0.1852093,0.3060646-0.3700314,0.449728-0.5364113c0.5204029-0.5975666,0.7564716-1.0761242,1.0060406-1.5823479    l0.1279392-0.2570419c0.466423-0.926054,0.4387589-1.9132614-0.0789185-2.9263859    c-0.1538582-0.3117905-1.2004719-2.8375664-1.893362-4.5087337c-0.3608112-0.8706264-0.6974525-1.6829128-0.9342079-2.2485428    c-0.7294846-1.7312536-2.4316158-2.5716906-5.0700912-2.5108271L17.8139343,11.88097    c-1.0558414,0-2.445796,0.6139708-3.4610567,1.5293465c-3.0892649,2.7949524-3.7376966,6.3143425-3.7376966,8.7746944    c0,4.7028732,3.1429453,9.1675377,4.0974398,10.4128551l0.0994978,0.1368713    c2.2752361,3.1581917,8.4775658,10.870739,16.9056149,14.2695656c5.9574146,2.3985176,8.9968891,3.1209145,11.0118771,3.1209145    c1.0678749,0,1.8482246-0.2029724,2.6220703-0.466713c2.0796394-0.7114296,4.3946762-3.166832,5.2706413-5.5905838    l0.0010681-0.00243C51.331131,42.0956383,51.7019424,39.5289955,51.0357475,38.4237518z"/>
		<g>
			
				<linearGradient id="SVGID_2_" gradientUnits="userSpaceOnUse" x1="40.4138031" y1="35.9608994" x2="40.4138031" y2="-27.6721363">
				<stop offset="0.0032366" style="stop-color:#00C2FF"/>
				<stop offset="1" style="stop-color:#0096CC"/>
			</linearGradient>
			<path class="st2" d="M49.3739967,14.983345h-17.920393c-1.110487,0-2.0108166,0.9002323-2.0108166,2.0108166v8.7778969     c0,1.110487,0.9003296,2.0108166,2.0108166,2.0108166l0,0c0.4042988,0,0.732008,0.3277111,0.732008,0.7319126v1.34268     c0,0.2692738,0.3114052,0.4189568,0.5216599,0.2507343l2.1867065-1.7493095     c0.4661331-0.3729458,1.0452576-0.5760174,1.6421432-0.5760174h12.8378754c1.1105843,0,2.0108223-0.9003296,2.0108223-2.0108166     v-8.7778969C51.384819,15.8835773,50.484581,14.983345,49.3739967,14.983345z"/>
			<g>
				
					<linearGradient id="SVGID_3_" gradientUnits="userSpaceOnUse" x1="674.350708" y1="21.8305836" x2="674.350708" y2="9.353014" gradientTransform="matrix(-1 0 0 1 719.3358154 0)">
					<stop offset="0" style="stop-color:#FFFFFF"/>
					<stop offset="0.516006" style="stop-color:#CCE2E6"/>
					<stop offset="1" style="stop-color:#8FA1BB"/>
				</linearGradient>
				<path class="st3" d="M44.0708351,21.38311c0,0.5048637,0.4093552,0.9142113,0.9142113,0.9142113      c0.5049629,0,0.9143143-0.4093475,0.9143143-0.9142113c0-0.504961-0.4093513-0.9143066-0.9143143-0.9143066      C44.4801903,20.4688034,44.0708351,20.878149,44.0708351,21.38311z"/>
				
					<linearGradient id="SVGID_4_" gradientUnits="userSpaceOnUse" x1="678.921936" y1="21.8305836" x2="678.921936" y2="9.353014" gradientTransform="matrix(-1 0 0 1 719.3358154 0)">
					<stop offset="0" style="stop-color:#FFFFFF"/>
					<stop offset="0.516006" style="stop-color:#CCE2E6"/>
					<stop offset="1" style="stop-color:#8FA1BB"/>
				</linearGradient>
				<path class="st4" d="M39.499588,21.38311c0,0.5048637,0.4093475,0.9142113,0.9142113,0.9142113      c0.5049629,0,0.9143066-0.4093475,0.9143066-0.9142113c0-0.504961-0.4093437-0.9143066-0.9143066-0.9143066      C39.9089355,20.4688034,39.499588,20.878149,39.499588,21.38311z"/>
				
					<linearGradient id="SVGID_5_" gradientUnits="userSpaceOnUse" x1="683.4932251" y1="21.8305836" x2="683.4932251" y2="9.353014" gradientTransform="matrix(-1 0 0 1 719.3358154 0)">
					<stop offset="0" style="stop-color:#FFFFFF"/>
					<stop offset="0.516006" style="stop-color:#CCE2E6"/>
					<stop offset="1" style="stop-color:#8FA1BB"/>
				</linearGradient>
				<path class="st5" d="M34.9283409,21.38311c0,0.5048637,0.4093475,0.9142113,0.9142113,0.9142113      c0.5049629,0,0.9143066-0.4093475,0.9143066-0.9142113c0-0.504961-0.4093437-0.9143066-0.9143066-0.9143066      C35.3376884,20.4688034,34.9283409,20.878149,34.9283409,21.38311z"/>
			</g>
		</g>
	</g>
</g>
</svg>