<?xml version="1.0" encoding="UTF-8"?>
<!-- Generator: Adobe Illustrator 24.1.0, SVG Export Plug-In . SVG Version: 6.00 Build 0)  -->
<svg version="1.1" id="Livello_1" xmlns="http://www.w3.org/2000/svg" xmlns:xlink="http://www.w3.org/1999/xlink" x="0px" y="0px" width="62px" height="62px" viewBox="0 0 62 62" style="enable-background:new 0 0 62 62;" xml:space="preserve">
<style type="text/css">
	.st0{fill:#FFFFFF;}
	.st1{fill:url(#SVGID_1_);}
	.st2{fill:url(#SVGID_2_);}
	.st3{fill:url(#SVGID_3_);}
	.st4{fill:url(#SVGID_4_);}
	.st5{fill:url(#SVGID_5_);}
	.st6{fill:url(#SVGID_6_);}
	.st7{fill:url(#SVGID_7_);}
	.st8{fill:url(#SVGID_8_);}
	.st9{fill:url(#SVGID_9_);}
	.st10{fill:url(#SVGID_10_);}
	.st11{fill:url(#SVGID_11_);}
	.st12{fill:url(#SVGID_12_);}
	.st13{fill:url(#SVGID_13_);}
	.st14{fill:url(#SVGID_14_);}
	.st15{fill:url(#SVGID_15_);}
	.st16{fill:url(#SVGID_16_);}
	.st17{fill:url(#SVGID_17_);}
	.st18{fill:url(#SVGID_18_);}
	.st19{fill:url(#SVGID_19_);}
	.st20{fill:url(#SVGID_20_);}
	.st21{fill:url(#SVGID_21_);}
	.st22{fill:url(#SVGID_22_);}
	.st23{fill:url(#SVGID_23_);}
	.st24{fill:url(#SVGID_24_);}
	.st25{fill:url(#SVGID_25_);}
	.st26{fill:url(#SVGID_26_);}
	.st27{fill:url(#SVGID_27_);}
	.st28{fill:url(#SVGID_28_);}
	.st29{fill:url(#SVGID_29_);}
	.st30{fill:url(#SVGID_30_);}
	.st31{fill:url(#SVGID_31_);}
	.st32{fill:url(#SVGID_32_);}
	.st33{fill:url(#SVGID_33_);}
	.st34{fill:url(#SVGID_34_);}
	.st35{fill:url(#SVGID_35_);}
	.st36{fill:url(#SVGID_36_);}
	.st37{fill:url(#SVGID_37_);}
	.st38{fill:url(#SVGID_38_);}
	.st39{fill:url(#SVGID_39_);}
	.st40{fill:url(#SVGID_40_);}
	.st41{fill:url(#SVGID_41_);}
	.st42{fill:url(#SVGID_42_);}
	.st43{fill:url(#SVGID_43_);}
	.st44{fill:url(#SVGID_44_);}
	.st45{fill:url(#SVGID_45_);}
	.st46{fill:url(#SVGID_46_);}
	.st47{fill:url(#SVGID_47_);}
	.st48{fill:url(#SVGID_48_);}
	.st49{fill:url(#SVGID_49_);}
	.st50{fill:url(#SVGID_50_);}
	.st51{fill:url(#SVGID_51_);}
	.st52{fill:url(#SVGID_52_);}
	.st53{fill:url(#SVGID_53_);}
	.st54{fill:url(#SVGID_54_);}
	.st55{fill:url(#SVGID_55_);}
	.st56{fill:url(#SVGID_56_);}
	.st57{fill:url(#SVGID_57_);}
	.st58{fill:url(#SVGID_58_);}
	.st59{fill:url(#SVGID_59_);}
	.st60{fill:url(#SVGID_60_);}
	.st61{fill:url(#SVGID_61_);}
	.st62{fill:url(#SVGID_62_);}
	.st63{fill:url(#SVGID_63_);}
	.st64{fill:url(#SVGID_64_);}
	.st65{fill:url(#SVGID_65_);}
	.st66{fill:url(#SVGID_66_);}
	.st67{fill:url(#SVGID_67_);}
	.st68{fill:url(#SVGID_68_);}
	.st69{fill:url(#SVGID_69_);}
	.st70{fill:url(#SVGID_70_);}
	.st71{fill:url(#SVGID_71_);}
</style>
<g>
	<path class="st0" d="M52,62H10C4.4771523,62,0,57.5228462,0,52V10C0,4.4771523,4.4771523,0,10,0h42c5.5228462,0,10,4.4771523,10,10   v42C62,57.5228462,57.5228462,62,52,62z"/>
	<g>
		<linearGradient id="SVGID_1_" gradientUnits="userSpaceOnUse" x1="31.0000038" y1="35.7252541" x2="31.0000038" y2="-2.4133496">
			<stop offset="0" style="stop-color:#FFFFFF"/>
			<stop offset="0.5163966" style="stop-color:#E1E1E5"/>
			<stop offset="1" style="stop-color:#A0A3B3"/>
		</linearGradient>
		<path class="st1" d="M37.3083878,14.1002007c-1.9998245-0.7013578-3.8219223-1.5889368-5.3978043-2.5879164    c-0.5554485-0.352026-1.2657185-0.352026-1.821167,0c-1.5758801,0.9989796-3.3979816,1.8865585-5.3978062,2.5879164    c-3.0835705,1.0812607-6.1142921,1.5542212-8.7227268,1.4725618c-0.9843683-0.030777-1.8095579,0.7265406-1.8095579,1.7113218    v17.872509c0,4.90588,2.617238,9.4390106,6.8658037,11.8918991l3.3299999,1.9226189    c4.1118774,2.3740273,9.1778641,2.3740273,13.2897415,0l3.3300018-1.9226189    c4.2485619-2.4528885,6.8658104-6.9860191,6.8658104-11.8918991v-17.872509c0-0.9847813-0.8251991-1.7420988-1.8095665-1.7113218    C43.4226837,15.6544218,40.3919601,15.1814613,37.3083878,14.1002007z"/>
		<linearGradient id="SVGID_2_" gradientUnits="userSpaceOnUse" x1="23.7136192" y1="60.1886673" x2="23.7136192" y2="9.4879732">
			<stop offset="0" style="stop-color:#0090CF"/>
			<stop offset="0.8913252" style="stop-color:#0071A1"/>
		</linearGradient>
		<path class="st2" d="M16.4272327,30.9959068v11.7157288c1.1560802,1.7544327,2.7160015,3.250309,4.5978966,4.3368568    l3.3299999,1.9226189c2.0558872,1.1869621,4.3503265,1.7804413,6.6448746,1.7804413V30.9959068H16.4272327z"/>
		<linearGradient id="SVGID_3_" gradientUnits="userSpaceOnUse" x1="31.4017181" y1="52.0710945" x2="31.4017181" y2="1.8876624">
			<stop offset="0" style="stop-color:#FFFFFF"/>
			<stop offset="0.5163966" style="stop-color:#E1E1E5"/>
			<stop offset="1" style="stop-color:#A0A3B3"/>
		</linearGradient>
		<path class="st3" d="M46.0312195,15.5727625c-0.0068398,0.0002079-0.0140915-0.000103-0.0209312,0.000104    c-0.275032,0.006218-0.5520248,0.0098448-0.8357658,0.0038338c-2.405529-0.0340929-5.1136551-0.5113029-7.8661346-1.4764996    c-1.9998245-0.7014618-3.8219223-1.5889368-5.3978043-2.5879164c-0.2603149-0.1649761-0.5552406-0.2453918-0.8516197-0.2557554    c-0.2886047,0.0135756-0.575552,0.0930586-0.8340015,0.2567921c-1.5756721,0.9983578-3.3972549,1.8857288-5.3964577,2.5867758    c-2.7478104,0.9636421-5.4517956,1.441267-7.8544235,1.4768114c-0.3047714,0.0065289-0.602911,0.0038338-0.8976269-0.0036268    c-0.4255037-0.0097418-0.8054056,0.1472559-1.1137009,0.3889179l9.9106216,0.6405287    c3.4476185,0.2226963,6.1299419,3.0839863,6.1299419,6.5387554v27.6099663    c2.2934017-0.0005188,4.5867023-0.593895,6.6416569-1.7803383l3.3298988-1.9226189    c4.2485619-2.4528885,6.8658104-6.9861221,6.8658104-11.8918991v-17.872509    C47.840683,16.2993031,47.0154839,15.5419855,46.0312195,15.5727625z"/>
		<linearGradient id="SVGID_4_" gradientUnits="userSpaceOnUse" x1="38.2863846" y1="69.1442642" x2="38.2863846" y2="18.4435024">
			<stop offset="0" style="stop-color:#0090CF"/>
			<stop offset="0.8913252" style="stop-color:#0071A1"/>
		</linearGradient>
		<path class="st4" d="M45.5727692,15.5629177c-2.5051193,0.0176172-5.3549042-0.4424934-8.2643814-1.4627171    c-1.9998245-0.7014618-3.8219223-1.5890408-5.3978043-2.5879164c-0.2776203-0.1759615-0.593895-0.2639418-0.9101696-0.2640457    h-0.0004101v19.7557526h14.5727654V15.5629177z"/>
	</g>
	<linearGradient id="SVGID_5_" gradientUnits="userSpaceOnUse" x1="31.6077824" y1="39.7253036" x2="31.6077824" y2="-23.886467">
		<stop offset="0.0032366" style="stop-color:#00C2FF"/>
		<stop offset="1" style="stop-color:#0096CC"/>
	</linearGradient>
	<path class="st5" d="M48.3495979,14.5812454c-0.0502586-0.0017614-0.1008301-0.0022802-0.1517105-0.0006218   c-0.2110901,0.0065289-0.4248772,0.0099487-0.6407356,0.0099487c-2.7292671,0-5.8328362-0.529335-8.9867744-1.6352596   c-2.2071838-0.7741051-4.2182007-1.7538099-5.9576035-2.8563137c-0.30653-0.1943035-0.6557579-0.2912998-1.0049877-0.2912998   c-0.3492279,0-0.6984558,0.0969963-1.0049934,0.2912998c-1.7394066,1.1025038-3.7504215,2.0822086-5.9576073,2.8563137   c-3.1537285,1.1059246-6.2576103,1.6352596-8.9867725,1.6352596c-0.2160654,0-0.4294367-0.0034199-0.6407356-0.0099487   c-0.021244-0.0007257-0.042695-0.0010366-0.0637312-0.0010366c-1.0581512-0.000103-1.9335022,0.8242617-1.9335022,1.8898745   l0.000104,19.7260113c0,5.4145927,2.8886461,10.417881,7.5778389,13.1252823l3.6752911,2.1218987   c2.2691555,1.3101768,4.80163,1.9652138,7.3341084,1.9652138c2.5324726,0,5.0649471-0.6550369,7.3341007-1.9652138   l3.6752892-2.1218987c4.6891937-2.7074013,7.5778427-7.7106895,7.5778427-13.1252823l0.000103-19.7260113   C50.1951218,15.4433317,49.3750038,14.6173077,48.3495979,14.5812454z M43.9773026,36.1953659   c0,3.1933174-1.7035484,6.1440353-4.4690857,7.7407455l-3.6751862,2.1218987   c-1.2828178,0.7406311-2.7439804,1.1320381-4.2252445,1.1320381c-1.4812698,0-2.9424343-0.391407-4.2251472-1.1320381   l-3.6754932-2.1221046c-2.7653332-1.5966072-4.4688835-4.5472221-4.4688835-7.7404327v-13.575655   c0-1.1411591,0.8083019-2.1238689,1.931118-2.3277054c1.8391991-0.3338909,3.7004776-0.8267479,5.5335579-1.4695568   c1.3711147-0.4808369,2.6951733-1.0327625,3.9623432-1.6510105c0.5981426-0.2918186,1.2869625-0.2918186,1.885004,0   c1.2672729,0.618248,2.5913353,1.1701736,3.9625473,1.6511135c1.8329811,0.6428089,3.6941528,1.1356659,5.5333519,1.4695568   c1.1228142,0.2038383,1.931118,1.1864433,1.931118,2.3277054V36.1953659z"/>
	<linearGradient id="SVGID_6_" gradientUnits="userSpaceOnUse" x1="42.5265884" y1="43.1598587" x2="34.5196724" y2="2.2014649">
		<stop offset="0.0032366" style="stop-color:#00C2FF"/>
		<stop offset="1" style="stop-color:#0096CC"/>
	</linearGradient>
	<path class="st6" d="M32.5502853,17.171545c1.2672729,0.618248,2.5913353,1.1701736,3.9625473,1.6511135   c1.8329811,0.6428089,3.6941528,1.1356659,5.5333519,1.4695568c1.1228142,0.2038383,1.931118,1.1864433,1.931118,2.3277054   v13.5754452c0,3.1933174-1.7035484,6.1440353-4.4690857,7.7407455l-3.6751862,2.1218987   c-1.2828178,0.7406311-2.7439804,1.1320381-4.2252445,1.1320381v6.2178192c2.5324726,0,5.0649471-0.6550369,7.3341007-1.9652138   l3.6752892-2.1218987c4.6891937-2.7074013,7.5778427-7.7106895,7.5778427-13.1252823l0.000103-19.7260113   c0-1.0261297-0.820118-1.8521538-1.8455238-1.88832c-0.0502586-0.0017614-0.1008301-0.0021763-0.1517105-0.0005178   c-0.2110901,0.0065289-0.4248772,0.0099487-0.6407356,0.0099487c-2.7292671,0-5.8328362-0.529335-8.9867744-1.6352596   c-2.2071838-0.7741051-4.2182007-1.7538099-5.9576035-2.8563137c-0.30653-0.1943035-0.6557579-0.2912998-1.0049877-0.2912998   v7.1448784C31.9294453,16.9525776,32.2513199,17.0256367,32.5502853,17.171545z"/>
</g>
</svg>