<?xml version="1.0" encoding="UTF-8"?>
<!-- Generator: Adobe Illustrator 24.1.0, SVG Export Plug-In . SVG Version: 6.00 Build 0)  -->
<svg version="1.1" id="Livello_1" xmlns="http://www.w3.org/2000/svg" xmlns:xlink="http://www.w3.org/1999/xlink" x="0px" y="0px" width="62px" height="62px" viewBox="0 0 62 62" style="enable-background:new 0 0 62 62;" xml:space="preserve">
<style type="text/css">
	.st0{fill:#FFFFFF;}
	.st1{fill:url(#SVGID_1_);}
	.st2{fill:url(#SVGID_2_);}
	.st3{fill:url(#SVGID_3_);}
	.st4{fill:url(#SVGID_4_);}
	.st5{fill:url(#SVGID_5_);}
	.st6{fill:url(#SVGID_6_);}
	.st7{fill:url(#SVGID_7_);}
	.st8{fill:url(#SVGID_8_);}
	.st9{fill:url(#SVGID_9_);}
	.st10{fill:url(#SVGID_10_);}
	.st11{fill:url(#SVGID_11_);}
	.st12{fill:url(#SVGID_12_);}
	.st13{fill:url(#SVGID_13_);}
	.st14{fill:url(#SVGID_14_);}
	.st15{fill:url(#SVGID_15_);}
	.st16{fill:url(#SVGID_16_);}
	.st17{fill:url(#SVGID_17_);}
	.st18{fill:url(#SVGID_18_);}
	.st19{fill:url(#SVGID_19_);}
	.st20{fill:url(#SVGID_20_);}
	.st21{fill:url(#SVGID_21_);}
	.st22{fill:url(#SVGID_22_);}
	.st23{fill:url(#SVGID_23_);}
	.st24{fill:url(#SVGID_24_);}
	.st25{fill:url(#SVGID_25_);}
	.st26{fill:url(#SVGID_26_);}
	.st27{fill:url(#SVGID_27_);}
	.st28{fill:url(#SVGID_28_);}
	.st29{fill:url(#SVGID_29_);}
	.st30{fill:url(#SVGID_30_);}
	.st31{fill:url(#SVGID_31_);}
	.st32{fill:url(#SVGID_32_);}
	.st33{fill:url(#SVGID_33_);}
	.st34{fill:url(#SVGID_34_);}
	.st35{fill:url(#SVGID_35_);}
	.st36{fill:url(#SVGID_36_);}
	.st37{fill:url(#SVGID_37_);}
	.st38{fill:url(#SVGID_38_);}
	.st39{fill:url(#SVGID_39_);}
	.st40{fill:url(#SVGID_40_);}
	.st41{fill:url(#SVGID_41_);}
	.st42{fill:url(#SVGID_42_);}
	.st43{fill:url(#SVGID_43_);}
	.st44{fill:url(#SVGID_44_);}
	.st45{fill:url(#SVGID_45_);}
	.st46{fill:url(#SVGID_46_);}
	.st47{fill:url(#SVGID_47_);}
	.st48{fill:url(#SVGID_48_);}
	.st49{fill:url(#SVGID_49_);}
	.st50{fill:url(#SVGID_50_);}
	.st51{fill:url(#SVGID_51_);}
	.st52{fill:url(#SVGID_52_);}
	.st53{fill:url(#SVGID_53_);}
	.st54{fill:url(#SVGID_54_);}
	.st55{fill:url(#SVGID_55_);}
	.st56{fill:url(#SVGID_56_);}
	.st57{fill:url(#SVGID_57_);}
	.st58{fill:url(#SVGID_58_);}
	.st59{fill:url(#SVGID_59_);}
	.st60{fill:url(#SVGID_60_);}
	.st61{fill:url(#SVGID_61_);}
	.st62{fill:url(#SVGID_62_);}
	.st63{fill:url(#SVGID_63_);}
	.st64{fill:url(#SVGID_64_);}
	.st65{fill:url(#SVGID_65_);}
	.st66{fill:url(#SVGID_66_);}
	.st67{fill:url(#SVGID_67_);}
	.st68{fill:url(#SVGID_68_);}
	.st69{fill:url(#SVGID_69_);}
	.st70{fill:url(#SVGID_70_);}
	.st71{fill:url(#SVGID_71_);}
</style>
<g>
	<path class="st0" d="M52,62H10C4.4771523,62,0,57.5228462,0,52V10C0,4.4771523,4.4771523,0,10,0h42c5.5228462,0,10,4.4771523,10,10   v42C62,57.5228462,57.5228462,62,52,62z"/>
	<g>
		<g>
			<linearGradient id="SVGID_1_" gradientUnits="userSpaceOnUse" x1="31" y1="30.0716515" x2="31" y2="1.4238435">
				<stop offset="0.0032366" style="stop-color:#00C2FF"/>
				<stop offset="1" style="stop-color:#0096CC"/>
			</linearGradient>
			<path class="st1" d="M50.639473,52.7619858c1.346653-2.8299904,2.1225281-5.9839287,2.1225281-9.3265686     c0-12.0188427-9.7431602-21.762001-21.762001-21.762001s-21.762001,9.7431583-21.762001,21.762001     c0,3.3426399,0.7758608,6.4965782,2.1225138,9.3265686H50.639473z"/>
			<linearGradient id="SVGID_2_" gradientUnits="userSpaceOnUse" x1="31" y1="67.875206" x2="31" y2="-6.7584429">
				<stop offset="0.0032366" style="stop-color:#00C2FF"/>
				<stop offset="1" style="stop-color:#0096CC"/>
			</linearGradient>
			<path class="st2" d="M47.1373444,52.7619858c1.5905952-2.7458458,2.5157967-5.9249611,2.5157967-9.3265686     c0-10.3019257-8.3513298-18.6531448-18.653141-18.6531448c-10.3018265,0-18.6531429,8.3512192-18.6531429,18.6531448     c0,3.4016075,0.925189,6.5807228,2.5157843,9.3265686H47.1373444z"/>
			
				<linearGradient id="SVGID_3_" gradientUnits="userSpaceOnUse" x1="45.7670708" y1="38.2978592" x2="45.7670708" y2="-14.8740435">
				<stop offset="0.0032366" style="stop-color:#00C2FF"/>
				<stop offset="1" style="stop-color:#0096CC"/>
			</linearGradient>
			<path class="st3" d="M41.3091698,44.4180222c0.4767952,0.4766922,0.7445717,1.12323,0.7445717,1.7973328v3.9392319     c0,0.6742096-0.2677765,1.3207474-0.7445717,1.7974396l-0.8098564,0.8099594h8.9811783l-0.8679924-0.97649     c-0.3309898-0.3723373-0.5137863-0.8531761-0.5137863-1.3513184v-1.4929771c0-0.5394897,0.2142982-1.0568047,0.5957527-1.4382591     l4.0675354-4.0676308c0-6.8013496-3.1232681-12.8699417-8.0101852-16.8605747l-5.4439125,5.443922     c-0.3430099,0.3430099-0.535759,0.8083-0.535759,1.2933846v7.8112144c0,0.4851875,0.192749,0.9504776,0.535759,1.2934914     L41.3091698,44.4180222z"/>
			
				<linearGradient id="SVGID_4_" gradientUnits="userSpaceOnUse" x1="17.0101433" y1="43.6821251" x2="17.0101433" y2="-27.4530525">
				<stop offset="0.0032366" style="stop-color:#00C2FF"/>
				<stop offset="1" style="stop-color:#0096CC"/>
			</linearGradient>
			<path class="st4" d="M15.4557142,52.7619858l0.3677711-0.367775c0.7598047-0.7598076,1.1866579-1.790287,1.1866579-2.8648148     v-2.0579567c0-0.593689,0.2358513-1.1630249,0.6555481-1.5828247l5.4260941-5.4259911     c1.0824013-1.0824013,1.6905003-2.5505066,1.6905003-4.0813103V22.5865898     C15.7952986,25.2633171,9.2379999,33.5787849,9.2379999,43.4354172c0,3.3401527,0.7595978,6.4998932,2.1067686,9.3265686     H15.4557142z"/>
			<linearGradient id="SVGID_5_" gradientUnits="userSpaceOnUse" x1="31" y1="69.1017838" x2="31" y2="36.2734184">
				<stop offset="0" style="stop-color:#0090CF"/>
				<stop offset="0.8913252" style="stop-color:#0071A1"/>
			</linearGradient>
			<circle class="st5" cx="31" cy="43.4354172" r="1.1658214"/>
			<linearGradient id="SVGID_6_" gradientUnits="userSpaceOnUse" x1="44.2126427" y1="69.4123917" x2="44.2126427" y2="22.3812771">
				<stop offset="0" style="stop-color:#0090CF"/>
				<stop offset="0.8913252" style="stop-color:#0071A1"/>
			</linearGradient>
			<path class="st6" d="M41.3091698,44.4180222c0.4767952,0.4766922,0.7445717,1.12323,0.7445717,1.7973328v3.9392319     c0,0.6742096-0.2677765,1.3207474-0.7445717,1.7974396l-0.8098564,0.8099594h6.6466331     c0.3649788-0.6295433,0.6972122-1.2805367,0.9876823-1.9545364c-0.0227966-0.1223869-0.0349159-0.2471542-0.0349159-0.3732719     v-1.4929771c0-0.5394897,0.2142982-1.0568047,0.5957527-1.4382591l0.6286125-0.6286125     c0.2081909-1.1159744,0.3300629-2.2625198,0.3300629-3.4389114c0-5.9436188-2.7894783-11.2261887-7.1200142-14.6419926     l-3.2252235,3.2252331c-0.3430099,0.3430099-0.535759,0.8083-0.535759,1.2933846v7.8112144     c0,0.4851875,0.192749,0.9504776,0.535759,1.2934914L41.3091698,44.4180222z"/>
			<linearGradient id="SVGID_7_" gradientUnits="userSpaceOnUse" x1="18.5645714" y1="83.7750397" x2="18.5645714" y2="20.5538139">
				<stop offset="0" style="stop-color:#0090CF"/>
				<stop offset="0.8913252" style="stop-color:#0071A1"/>
			</linearGradient>
			<path class="st7" d="M15.4557142,52.7619858l0.3677711-0.367775c0.7598047-0.7598076,1.1866579-1.790287,1.1866579-2.8648148     v-2.0579567c0-0.593689,0.2358513-1.1630249,0.6555481-1.5828247l5.4260941-5.4259911     c1.0824013-1.0824013,1.6905003-2.5505066,1.6905003-4.0813103V25.8664341     c-7.2400169,2.5633564-12.4354286,9.4507198-12.4354286,17.5689831c0,3.4045067,0.9362774,6.579998,2.5309143,9.3265686     H15.4557142z"/>
			<linearGradient id="SVGID_8_" gradientUnits="userSpaceOnUse" x1="26.0700188" y1="69.8227158" x2="26.0700188" y2="38.3887672">
				<stop offset="0" style="stop-color:#0090CF"/>
				<stop offset="0.8913252" style="stop-color:#0071A1"/>
			</linearGradient>
			<path class="st8" d="M24.3645515,52.3442612c0.1757545,0.1756477,0.3760681,0.3075676,0.5849838,0.4177246h2.2409687     c0.2089138-0.110157,0.4092293-0.2420769,0.5849819-0.4177246l0.985611-0.985714     c0.9419842-0.9418831,0.9419842-2.4689522,0-3.4109344l-0.985611-0.9856148     c-0.9419823-0.9419823-2.4690533-0.9419823-3.4109344,0l-0.985611,0.9856148     c-0.9419842,0.9419823-0.9419842,2.4690514,0,3.4109344L24.3645515,52.3442612z"/>
			<g>
				<g>
					
						<linearGradient id="SVGID_9_" gradientUnits="userSpaceOnUse" x1="30.9999924" y1="45.7157555" x2="30.9999924" y2="23.2872028">
						<stop offset="0.0032366" style="stop-color:#00C2FF"/>
						<stop offset="1" style="stop-color:#0096CC"/>
					</linearGradient>
					<ellipse class="st9" cx="30.9999962" cy="29.38908" rx="5.2304482" ry="0.7473692"/>
					
						<linearGradient id="SVGID_10_" gradientUnits="userSpaceOnUse" x1="30.9999924" y1="42.5233612" x2="30.9999924" y2="12.4043703">
						<stop offset="0" style="stop-color:#0090CF"/>
						<stop offset="0.8913252" style="stop-color:#0071A1"/>
					</linearGradient>
					<path class="st10" d="M37.0458908,23.8341751l-5.4513798,5.4513817c-0.3282967,0.3282948-0.8607407,0.3282948-1.1890354,0       l-5.4513798-5.4513817c-3.3391209-3.3391209-3.3391209-8.75278,0-12.0918999l0,0       c3.339016-3.339016,8.752779-3.339016,12.091795,0l0,0C40.3850098,15.0813951,40.3850098,20.4950542,37.0458908,23.8341751z"/>
					
						<linearGradient id="SVGID_11_" gradientUnits="userSpaceOnUse" x1="33.1185341" y1="45.8520432" x2="33.1185341" y2="17.0122738">
						<stop offset="0" style="stop-color:#0090CF"/>
						<stop offset="0.8913252" style="stop-color:#0071A1"/>
					</linearGradient>
					<path class="st11" d="M26.742939,10.3821497L26.742939,10.3821497       c2.6028309,1.1242666,4.2881489,3.6882448,4.2881489,6.5235224v12.6231003       c0.2046604-0.0075645,0.4072609-0.0870476,0.5634232-0.2432156l5.2907543-5.2907581       c3.3116608-3.311657,3.5350838-8.7245922,0.2993851-12.1105528       C34.3944511,8.9644079,30.0654697,8.4702034,26.742939,10.3821497z"/>
					
						<linearGradient id="SVGID_12_" gradientUnits="userSpaceOnUse" x1="30.9999924" y1="27.2113647" x2="30.9999924" y2="0.6800395">
						<stop offset="0" style="stop-color:#FFFFFF"/>
						<stop offset="0.5163966" style="stop-color:#E1E1E5"/>
						<stop offset="1" style="stop-color:#A0A3B3"/>
					</linearGradient>
					<path class="st12" d="M35.1096954,17.7881737c0,2.2697754-1.8400307,4.1097012-4.1096954,4.1097012       c-2.26968,0-4.1097088-1.8399258-4.1097088-4.1097012c0-2.2696733,1.8400288-4.1095991,4.1097088-4.1095991       C33.2696648,13.6785746,35.1096954,15.5185003,35.1096954,17.7881737z"/>
					
						<linearGradient id="SVGID_13_" gradientUnits="userSpaceOnUse" x1="32.6973763" y1="25.4871311" x2="32.6973763" y2="9.1629076">
						<stop offset="0" style="stop-color:#FFFFFF"/>
						<stop offset="0.5163966" style="stop-color:#E1E1E5"/>
						<stop offset="1" style="stop-color:#A0A3B3"/>
					</linearGradient>
					<path class="st13" d="M31,13.6785746c-0.2443638,0-0.4822941,0.0252857-0.714941,0.0661154       c0.4791794,0.9637461,0.7460289,2.0402393,0.7460289,3.1608791v4.9907513       c2.2552624-0.0169945,4.0786076-1.8489399,4.0786076-4.1081467C35.1096954,15.5185003,33.2696648,13.6785746,31,13.6785746z"/>
				</g>
			</g>
		</g>
	</g>
</g>
</svg>