<?xml version="1.0" encoding="UTF-8"?>
<!-- Generator: Adobe Illustrator 24.1.2, SVG Export Plug-In . SVG Version: 6.00 Build 0)  -->
<svg version="1.1" id="Livello_1" xmlns="http://www.w3.org/2000/svg" xmlns:xlink="http://www.w3.org/1999/xlink" x="0px" y="0px" width="51.6113472px" height="60.5321579px" viewBox="0 0 51.6113472 60.5321579" style="enable-background:new 0 0 51.6113472 60.5321579;" xml:space="preserve">
<style type="text/css">
	.st0{fill:url(#SVGID_1_);}
	.st1{fill:url(#SVGID_2_);}
	.st2{fill:url(#SVGID_3_);}
	.st3{fill:url(#SVGID_4_);}
	.st4{fill:url(#SVGID_5_);}
	.st5{fill:url(#SVGID_6_);}
	.st6{fill:url(#SVGID_7_);}
	.st7{fill:url(#SVGID_8_);}
	.st8{fill:url(#SVGID_9_);}
	.st9{fill:url(#SVGID_10_);}
	.st10{fill:url(#SVGID_11_);}
	.st11{fill:url(#SVGID_12_);}
	.st12{fill:url(#SVGID_13_);}
	.st13{fill:url(#SVGID_14_);}
	.st14{fill:url(#SVGID_15_);}
	.st15{fill:#FFFFFF;}
	.st16{fill:url(#SVGID_16_);}
	.st17{fill:url(#SVGID_17_);}
	.st18{fill:url(#SVGID_18_);}
	.st19{fill:url(#SVGID_19_);}
	.st20{fill:url(#SVGID_20_);}
	.st21{fill:url(#SVGID_21_);}
	.st22{fill:url(#SVGID_22_);}
	.st23{fill:url(#SVGID_23_);}
	.st24{fill:url(#SVGID_24_);}
	.st25{fill:url(#SVGID_25_);}
	.st26{fill:url(#SVGID_26_);}
	.st27{fill:url(#SVGID_27_);}
	.st28{fill:url(#SVGID_28_);}
	.st29{fill:url(#SVGID_29_);}
	.st30{fill:url(#SVGID_30_);}
	.st31{fill:url(#SVGID_31_);}
	.st32{fill:url(#SVGID_32_);}
	.st33{fill:url(#SVGID_33_);}
	.st34{fill:url(#SVGID_34_);}
	.st35{fill:url(#SVGID_35_);}
	.st36{fill:url(#SVGID_36_);}
	.st37{fill:url(#SVGID_37_);}
	.st38{fill:url(#SVGID_38_);}
	.st39{fill:url(#SVGID_39_);}
	.st40{fill:url(#SVGID_40_);}
	.st41{fill:url(#SVGID_41_);}
	.st42{fill:url(#SVGID_42_);}
	.st43{fill:url(#SVGID_43_);}
	.st44{fill:url(#SVGID_44_);}
	.st45{fill:url(#SVGID_45_);}
	.st46{fill:url(#SVGID_46_);}
	.st47{fill:url(#SVGID_47_);}
	.st48{fill:url(#SVGID_48_);}
	.st49{fill:url(#SVGID_49_);}
	.st50{fill:url(#SVGID_50_);}
	.st51{fill:url(#SVGID_51_);}
	.st52{fill:url(#SVGID_52_);}
	.st53{fill:url(#SVGID_53_);}
	.st54{fill:url(#SVGID_54_);}
	.st55{fill:url(#SVGID_55_);}
	.st56{fill:url(#SVGID_56_);}
	.st57{fill:url(#SVGID_57_);}
	.st58{fill:url(#SVGID_58_);}
	.st59{fill:url(#SVGID_59_);}
	.st60{fill:url(#SVGID_60_);}
	.st61{fill:url(#SVGID_61_);}
	.st62{fill:url(#SVGID_62_);}
	.st63{fill:url(#SVGID_63_);}
	.st64{fill:url(#SVGID_64_);}
	.st65{fill:url(#SVGID_65_);}
	.st66{fill:url(#SVGID_66_);}
	.st67{fill:url(#SVGID_67_);}
	.st68{fill:url(#SVGID_68_);}
	.st69{fill:#006592;}
	.st70{fill:url(#SVGID_69_);}
	.st71{fill:url(#SVGID_70_);}
	.st72{fill:url(#SVGID_71_);}
	.st73{fill:url(#SVGID_72_);}
	.st74{fill:url(#SVGID_73_);}
	.st75{fill:url(#SVGID_74_);}
	.st76{fill:url(#SVGID_75_);}
	.st77{fill:url(#SVGID_76_);}
	.st78{fill:url(#SVGID_77_);}
	.st79{fill:url(#SVGID_78_);}
	.st80{fill:url(#SVGID_79_);}
	.st81{fill:url(#SVGID_80_);}
	.st82{fill:url(#SVGID_81_);}
	.st83{fill:url(#SVGID_82_);}
	.st84{fill:url(#SVGID_83_);}
	.st85{fill:url(#SVGID_84_);}
	.st86{fill:url(#SVGID_85_);}
	.st87{fill:url(#SVGID_86_);}
	.st88{fill:url(#SVGID_87_);}
	.st89{fill:url(#SVGID_88_);}
	.st90{fill:url(#SVGID_89_);}
	.st91{fill:url(#SVGID_90_);}
	.st92{fill:url(#SVGID_91_);}
	.st93{fill:url(#SVGID_92_);}
	.st94{fill:url(#SVGID_93_);}
	.st95{fill:url(#SVGID_94_);}
	.st96{fill:url(#SVGID_95_);}
	.st97{fill:url(#SVGID_96_);}
	.st98{fill:url(#SVGID_97_);}
	.st99{fill:url(#SVGID_98_);}
	.st100{fill:url(#SVGID_99_);}
	.st101{fill:url(#SVGID_100_);}
	.st102{fill:url(#SVGID_101_);}
	.st103{fill:url(#SVGID_102_);}
	.st104{fill:url(#SVGID_103_);}
	.st105{fill:url(#SVGID_104_);}
	.st106{fill:url(#SVGID_105_);}
	.st107{fill:url(#SVGID_106_);}
	.st108{fill:url(#SVGID_107_);}
	.st109{fill:url(#SVGID_108_);}
	.st110{fill:url(#SVGID_109_);}
	.st111{fill:url(#SVGID_110_);}
	.st112{fill:url(#SVGID_111_);}
	.st113{fill:url(#SVGID_112_);}
	.st114{fill:url(#SVGID_113_);}
	.st115{fill:url(#SVGID_114_);}
	.st116{fill:url(#SVGID_115_);}
	.st117{fill:url(#SVGID_116_);}
	.st118{fill:url(#SVGID_117_);}
	.st119{fill:url(#SVGID_118_);}
	.st120{fill:url(#SVGID_119_);}
	.st121{fill:url(#SVGID_120_);}
	.st122{fill:url(#SVGID_121_);}
	.st123{fill:url(#SVGID_122_);}
	.st124{fill:url(#SVGID_123_);}
	.st125{fill:url(#SVGID_124_);}
	.st126{fill:url(#SVGID_125_);}
	.st127{fill:url(#SVGID_126_);}
	.st128{fill:url(#SVGID_127_);}
	.st129{fill:url(#SVGID_128_);}
	.st130{fill:url(#SVGID_129_);}
	.st131{fill:url(#SVGID_130_);}
	.st132{fill:url(#SVGID_131_);}
	.st133{fill:url(#SVGID_132_);}
	.st134{fill:url(#SVGID_133_);}
	.st135{fill:url(#SVGID_134_);}
	.st136{fill:url(#SVGID_135_);}
	.st137{fill:url(#SVGID_136_);}
	.st138{fill:url(#SVGID_137_);}
	.st139{fill:url(#SVGID_138_);}
	.st140{fill:url(#SVGID_139_);}
	.st141{fill:url(#SVGID_140_);}
</style>
<g>
	<g>
		
			<linearGradient id="SVGID_1_" gradientUnits="userSpaceOnUse" x1="24.9618664" y1="903.5185547" x2="24.9618664" y2="956.4681396" gradientTransform="matrix(1 0 0 -1 0 939.5010986)">
			<stop offset="0" style="stop-color:#FFFFFF"/>
			<stop offset="0.5163966" style="stop-color:#E1E1E5"/>
			<stop offset="1" style="stop-color:#A0A3B3"/>
		</linearGradient>
		<path class="st0" d="M33.7200928,5.9594808c-2.7764511-0.9737277-5.3061562-2.2059953-7.4940262-3.5929253    c-0.7711563-0.4887342-1.7572575-0.4887342-2.5284119,0c-2.1878681,1.38693-4.717577,2.6191976-7.4940281,3.5929253    C11.9225616,7.4606457,7.714869,8.1172791,4.0934567,8.0039072C2.7268121,7.9611783,1.5811628,9.012598,1.5811628,10.3798161    v24.813242c0,6.8110619,3.6336341,13.1046219,9.5321178,16.5100822l4.6231947,2.6692619    c5.7087116,3.2959709,12.7420597,3.2959709,18.4507694,0l4.6231995-2.6692619    c5.8984756-3.4054604,9.5321274-9.6990204,9.5321274-16.5100822v-24.813242c0-1.367218-1.1456642-2.4186378-2.5123062-2.3759089    C42.2088547,8.1172791,38.0011597,7.4606457,33.7200928,5.9594808z"/>
		
			<linearGradient id="SVGID_2_" gradientUnits="userSpaceOnUse" x1="14.8458347" y1="869.5548706" x2="14.8458347" y2="939.9450073" gradientTransform="matrix(1 0 0 -1 0 939.5010986)">
			<stop offset="0" style="stop-color:#0090CF"/>
			<stop offset="0.8913252" style="stop-color:#0071A1"/>
		</linearGradient>
		<path class="st1" d="M4.7298045,29.4165821v16.2654934c1.6050406,2.4357643,3.7707524,4.512558,6.3834758,6.0210648    l4.6231947,2.6692619c2.8542843,1.6479149,6.0397625,2.4718704,9.2253914,2.4718704V29.4165821H4.7298045z"/>
		
			<linearGradient id="SVGID_3_" gradientUnits="userSpaceOnUse" x1="25.5195847" y1="880.8248291" x2="25.5195847" y2="950.4968872" gradientTransform="matrix(1 0 0 -1 0 939.5010986)">
			<stop offset="0" style="stop-color:#FFFFFF"/>
			<stop offset="0.5163966" style="stop-color:#E1E1E5"/>
			<stop offset="1" style="stop-color:#A0A3B3"/>
		</linearGradient>
		<path class="st2" d="M45.8304062,8.0039072c-0.0094948,0.000289-0.0195618-0.0001431-0.0290604,0.000145    c-0.3818398,0.0086327-0.7663994,0.0136681-1.1603317,0.0053225c-3.3397102-0.0473328-7.0995255-0.709866-10.9209213-2.0498939    c-2.7764511-0.9738722-5.3061562-2.2059953-7.4940262-3.5929253c-0.3614082-0.2290442-0.7708664-0.3406892-1.1823444-0.3550773    c-0.4006824,0.0188475-0.7990646,0.1291976-1.1578827,0.3565164c-2.1875801,1.3860669-4.716568,2.6180456-7.4921551,3.5913422    c-3.8149147,1.3378696-7.568984,2.0009785-10.904665,2.0503268c-0.4231286,0.0090637-0.83705,0.0053225-1.2462177-0.0050354    C3.6520555,7.9911027,3.12462,8.2090702,2.6965992,8.5445805L16.4559803,9.433857    c4.7864895,0.3091793,8.5104847,4.2816429,8.5104847,9.0780602v38.3322105    c3.1840382-0.000721,6.3679352-0.8245316,9.2209244-2.4717255l4.6230545-2.6692619    c5.8984756-3.4054604,9.5321274-9.6991615,9.5321274-16.5100822v-24.813242    C48.3425713,9.012598,47.196907,7.9611783,45.8304062,8.0039072z"/>
		
			<linearGradient id="SVGID_4_" gradientUnits="userSpaceOnUse" x1="35.0778923" y1="857.1213989" x2="35.0778923" y2="927.5115967" gradientTransform="matrix(1 0 0 -1 0 939.5010986)">
			<stop offset="0" style="stop-color:#0090CF"/>
			<stop offset="0.8913252" style="stop-color:#0071A1"/>
		</linearGradient>
		<path class="st3" d="M45.1939201,7.9902396C41.7159462,8.014698,37.7594528,7.375905,33.7200928,5.9594808    c-2.7764511-0.9738722-5.3061562-2.2061396-7.4940262-3.5929253c-0.3854332-0.2442956-0.8245335-0.3664429-1.2636318-0.3665872    h-0.0005684v27.4278374h20.2320538V7.9902396z"/>
	</g>
	
		<linearGradient id="SVGID_5_" gradientUnits="userSpaceOnUse" x1="25.8056736" y1="897.9650879" x2="25.8056736" y2="986.2802734" gradientTransform="matrix(1 0 0 -1 0 939.5010986)">
		<stop offset="0.0032366" style="stop-color:#00C2FF"/>
		<stop offset="1" style="stop-color:#0096CC"/>
	</linearGradient>
	<path class="st4" d="M49.0491219,6.6273379c-0.0697784-0.0024452-0.1399879-0.0031657-0.2106285-0.0008631   c-0.2930641,0.0090642-0.5898781,0.0138121-0.8895645,0.0138121c-3.7891693,0-8.0979996-0.7349005-12.476757-2.2703075   c-3.0643387-1.0747263-5.8563271-2.4348965-8.2712212-3.9655542C26.7753792,0.1346645,26.2905312,0,25.8056793,0   c-0.4848499,0-0.9696999,0.1346645-1.3952808,0.4044252c-2.4148998,1.5306578-5.2068863,2.8908279-8.271225,3.9655542   C11.760704,5.9053864,7.4514399,6.6402869,3.662416,6.6402869c-0.2999737,0-0.5962071-0.0047479-0.8895633-0.0138121   c-0.029494-0.0010076-0.0592754-0.0014396-0.0884809-0.0014396C1.2152908,6.6248927,0,7.7693968,0,9.2488365l0.0001443,27.3865471   c0,7.517334,4.0104427,14.4636307,10.520669,18.2224426l5.1025791,2.9459343   c3.1503754,1.8189774,6.6663284,2.7283974,10.1822872,2.7283974c3.5159492,0,7.0319023-0.90942,10.1822739-2.7283974   l5.1025772-2.9459343c6.5102272-3.758812,10.5206757-10.7051086,10.5206757-18.2224426l0.0001411-27.3865471   C51.6113472,7.8242126,50.4727402,6.6774049,49.0491219,6.6273379z M42.9788589,36.6352348   c0,4.4334335-2.3651161,8.5300522-6.2046432,10.7468414l-5.1024323,2.9459305   c-1.7809963,1.0282516-3.809597,1.5716591-5.8661041,1.5716591c-2.0565166,0-4.0851212-0.5434074-5.8659706-1.5716591   l-5.1028595-2.9462166c-3.839242-2.2166481-6.204361-6.3131218-6.204361-10.7464066V17.7876644   c0-1.5843239,1.1222038-2.9486666,2.6810617-3.2316618c2.5534468-0.4635572,5.1375475-1.1478128,7.682498-2.0402546   c1.9035835-0.6675692,3.7418346-1.4338331,5.5011063-2.2921753c0.8304291-0.4051456,1.7867508-0.4051456,2.6170406,0   c1.7594147,0.8583422,3.5976715,1.6246061,5.5013905,2.2923183c2.5448112,0.8924408,5.1287651,1.5766973,7.682209,2.0402546   c1.558857,0.2829981,2.6810646,1.6471949,2.6810646,3.2316618V36.6352348z"/>
	
		<linearGradient id="SVGID_6_" gradientUnits="userSpaceOnUse" x1="40.9647636" y1="893.1967163" x2="29.8483887" y2="950.0612183" gradientTransform="matrix(1 0 0 -1 0 939.5010986)">
		<stop offset="0.0032366" style="stop-color:#00C2FF"/>
		<stop offset="1" style="stop-color:#0096CC"/>
	</linearGradient>
	<path class="st5" d="M27.1141949,10.2235727c1.7594147,0.8583422,3.5976715,1.6246061,5.5013905,2.2923183   c2.5448112,0.8924408,5.1287651,1.5766973,7.682209,2.0402546c1.558857,0.2829981,2.6810646,1.6471949,2.6810646,3.2316618   v18.8474274c0,4.4334335-2.3651161,8.5300522-6.2046432,10.7468414l-5.1024323,2.9459305   c-1.7809963,1.0282516-3.809597,1.5716591-5.8661041,1.5716591v8.6324921c3.5159492,0,7.0319023-0.90942,10.1822739-2.7283974   l5.1025772-2.9459343c6.5102272-3.758812,10.5206757-10.7051086,10.5206757-18.2224426l0.0001411-27.3865471   c0-1.424624-1.138607-2.5714316-2.5622253-2.6216431c-0.0697784-0.0024452-0.1399879-0.0030212-0.2106285-0.0007186   c-0.2930641,0.0090642-0.5898781,0.0138121-0.8895645,0.0138121c-3.7891693,0-8.0979996-0.7349005-12.476757-2.2703075   c-3.0643387-1.0747263-5.8563271-2.4348965-8.2712212-3.9655542C26.7753792,0.1346645,26.2905312,0,25.8056793,0v9.91957   C26.2522526,9.91957,26.6991272,10.0210009,27.1141949,10.2235727z"/>
</g>
</svg>