<?xml version="1.0" encoding="UTF-8"?>
<!-- Generator: Adobe Illustrator 24.1.2, SVG Export Plug-In . SVG Version: 6.00 Build 0)  -->
<svg version="1.1" id="Livello_1" xmlns="http://www.w3.org/2000/svg" xmlns:xlink="http://www.w3.org/1999/xlink" x="0px" y="0px" width="60.2521362px" height="60.3626747px" viewBox="0 0 60.2521362 60.3626747" style="enable-background:new 0 0 60.2521362 60.3626747;" xml:space="preserve">
<style type="text/css">
	.st0{fill:url(#SVGID_1_);}
	.st1{fill:url(#SVGID_2_);}
	.st2{fill:url(#SVGID_3_);}
	.st3{fill:url(#SVGID_4_);}
	.st4{fill:url(#SVGID_5_);}
	.st5{fill:url(#SVGID_6_);}
	.st6{fill:url(#SVGID_7_);}
	.st7{fill:url(#SVGID_8_);}
	.st8{fill:url(#SVGID_9_);}
	.st9{fill:url(#SVGID_10_);}
	.st10{fill:url(#SVGID_11_);}
	.st11{fill:url(#SVGID_12_);}
	.st12{fill:url(#SVGID_13_);}
	.st13{fill:url(#SVGID_14_);}
	.st14{fill:url(#SVGID_15_);}
	.st15{fill:#FFFFFF;}
	.st16{fill:url(#SVGID_16_);}
	.st17{fill:url(#SVGID_17_);}
	.st18{fill:url(#SVGID_18_);}
	.st19{fill:url(#SVGID_19_);}
	.st20{fill:url(#SVGID_20_);}
	.st21{fill:url(#SVGID_21_);}
	.st22{fill:url(#SVGID_22_);}
	.st23{fill:url(#SVGID_23_);}
	.st24{fill:url(#SVGID_24_);}
	.st25{fill:url(#SVGID_25_);}
	.st26{fill:url(#SVGID_26_);}
	.st27{fill:url(#SVGID_27_);}
	.st28{fill:url(#SVGID_28_);}
	.st29{fill:url(#SVGID_29_);}
	.st30{fill:url(#SVGID_30_);}
	.st31{fill:url(#SVGID_31_);}
	.st32{fill:url(#SVGID_32_);}
	.st33{fill:url(#SVGID_33_);}
	.st34{fill:url(#SVGID_34_);}
	.st35{fill:url(#SVGID_35_);}
	.st36{fill:url(#SVGID_36_);}
	.st37{fill:url(#SVGID_37_);}
	.st38{fill:url(#SVGID_38_);}
	.st39{fill:url(#SVGID_39_);}
	.st40{fill:url(#SVGID_40_);}
	.st41{fill:url(#SVGID_41_);}
	.st42{fill:url(#SVGID_42_);}
	.st43{fill:url(#SVGID_43_);}
	.st44{fill:url(#SVGID_44_);}
	.st45{fill:url(#SVGID_45_);}
	.st46{fill:url(#SVGID_46_);}
	.st47{fill:url(#SVGID_47_);}
	.st48{fill:url(#SVGID_48_);}
	.st49{fill:url(#SVGID_49_);}
	.st50{fill:url(#SVGID_50_);}
	.st51{fill:url(#SVGID_51_);}
	.st52{fill:url(#SVGID_52_);}
	.st53{fill:url(#SVGID_53_);}
	.st54{fill:url(#SVGID_54_);}
	.st55{fill:url(#SVGID_55_);}
	.st56{fill:url(#SVGID_56_);}
	.st57{fill:url(#SVGID_57_);}
	.st58{fill:url(#SVGID_58_);}
	.st59{fill:url(#SVGID_59_);}
	.st60{fill:url(#SVGID_60_);}
	.st61{fill:url(#SVGID_61_);}
	.st62{fill:url(#SVGID_62_);}
	.st63{fill:url(#SVGID_63_);}
	.st64{fill:url(#SVGID_64_);}
	.st65{fill:url(#SVGID_65_);}
	.st66{fill:url(#SVGID_66_);}
	.st67{fill:url(#SVGID_67_);}
	.st68{fill:url(#SVGID_68_);}
	.st69{fill:#006592;}
	.st70{fill:url(#SVGID_69_);}
	.st71{fill:url(#SVGID_70_);}
	.st72{fill:url(#SVGID_71_);}
	.st73{fill:url(#SVGID_72_);}
	.st74{fill:url(#SVGID_73_);}
	.st75{fill:url(#SVGID_74_);}
	.st76{fill:url(#SVGID_75_);}
	.st77{fill:url(#SVGID_76_);}
	.st78{fill:url(#SVGID_77_);}
	.st79{fill:url(#SVGID_78_);}
	.st80{fill:url(#SVGID_79_);}
	.st81{fill:url(#SVGID_80_);}
	.st82{fill:url(#SVGID_81_);}
	.st83{fill:url(#SVGID_82_);}
	.st84{fill:url(#SVGID_83_);}
	.st85{fill:url(#SVGID_84_);}
	.st86{fill:url(#SVGID_85_);}
	.st87{fill:url(#SVGID_86_);}
	.st88{fill:url(#SVGID_87_);}
	.st89{fill:url(#SVGID_88_);}
	.st90{fill:url(#SVGID_89_);}
	.st91{fill:url(#SVGID_90_);}
	.st92{fill:url(#SVGID_91_);}
	.st93{fill:url(#SVGID_92_);}
	.st94{fill:url(#SVGID_93_);}
	.st95{fill:url(#SVGID_94_);}
	.st96{fill:url(#SVGID_95_);}
	.st97{fill:url(#SVGID_96_);}
	.st98{fill:url(#SVGID_97_);}
	.st99{fill:url(#SVGID_98_);}
	.st100{fill:url(#SVGID_99_);}
	.st101{fill:url(#SVGID_100_);}
	.st102{fill:url(#SVGID_101_);}
	.st103{fill:url(#SVGID_102_);}
	.st104{fill:url(#SVGID_103_);}
	.st105{fill:url(#SVGID_104_);}
	.st106{fill:url(#SVGID_105_);}
	.st107{fill:url(#SVGID_106_);}
	.st108{fill:url(#SVGID_107_);}
	.st109{fill:url(#SVGID_108_);}
	.st110{fill:url(#SVGID_109_);}
	.st111{fill:url(#SVGID_110_);}
	.st112{fill:url(#SVGID_111_);}
	.st113{fill:url(#SVGID_112_);}
	.st114{fill:url(#SVGID_113_);}
	.st115{fill:url(#SVGID_114_);}
	.st116{fill:url(#SVGID_115_);}
	.st117{fill:url(#SVGID_116_);}
	.st118{fill:url(#SVGID_117_);}
	.st119{fill:url(#SVGID_118_);}
	.st120{fill:url(#SVGID_119_);}
	.st121{fill:url(#SVGID_120_);}
	.st122{fill:url(#SVGID_121_);}
	.st123{fill:url(#SVGID_122_);}
	.st124{fill:url(#SVGID_123_);}
	.st125{fill:url(#SVGID_124_);}
	.st126{fill:url(#SVGID_125_);}
	.st127{fill:url(#SVGID_126_);}
	.st128{fill:url(#SVGID_127_);}
	.st129{fill:url(#SVGID_128_);}
	.st130{fill:url(#SVGID_129_);}
	.st131{fill:url(#SVGID_130_);}
	.st132{fill:url(#SVGID_131_);}
	.st133{fill:url(#SVGID_132_);}
	.st134{fill:url(#SVGID_133_);}
	.st135{fill:url(#SVGID_134_);}
	.st136{fill:url(#SVGID_135_);}
	.st137{fill:url(#SVGID_136_);}
	.st138{fill:url(#SVGID_137_);}
	.st139{fill:url(#SVGID_138_);}
	.st140{fill:url(#SVGID_139_);}
	.st141{fill:url(#SVGID_140_);}
</style>
<g>
	<g>
		<g>
			
				<linearGradient id="SVGID_1_" gradientUnits="userSpaceOnUse" x1="30.0422535" y1="855.8574219" x2="30.0422535" y2="945.6450806" gradientTransform="matrix(1 0 0 -1 0 939.331604)">
				<stop offset="0.0032366" style="stop-color:#00C2FF"/>
				<stop offset="1" style="stop-color:#0096CC"/>
			</linearGradient>
			<circle class="st0" cx="30.0422535" cy="20.4454212" r="20.4454231"/>
			
				<linearGradient id="SVGID_2_" gradientUnits="userSpaceOnUse" x1="30.0422535" y1="898.4362183" x2="30.0422535" y2="963.3554077" gradientTransform="matrix(1 0 0 -1 0 939.331604)">
				<stop offset="0.0032366" style="stop-color:#00C2FF"/>
				<stop offset="1" style="stop-color:#0096CC"/>
			</linearGradient>
			<circle class="st1" cx="30.0422535" cy="20.4454212" r="16.1338005"/>
			
				<linearGradient id="SVGID_3_" gradientUnits="userSpaceOnUse" x1="30.0422535" y1="906.6608276" x2="30.0422535" y2="971.0568237" gradientTransform="matrix(1 0 0 -1 0 939.331604)">
				<stop offset="0.0032366" style="stop-color:#00C2FF"/>
				<stop offset="1" style="stop-color:#0096CC"/>
			</linearGradient>
			<circle class="st2" cx="30.0422535" cy="20.4454212" r="14.6038723"/>
			
				<linearGradient id="SVGID_4_" gradientUnits="userSpaceOnUse" x1="30.0422535" y1="918.052124" x2="30.0422535" y2="1061.6542969" gradientTransform="matrix(1 0 0 -1 0 939.331604)">
				<stop offset="0.0032366" style="stop-color:#00C2FF"/>
				<stop offset="1" style="stop-color:#0096CC"/>
			</linearGradient>
			<path class="st3" d="M30.7376766,5.8415489c0,0.4172535-0.2781696,0.6954222-0.6954231,0.6954222     c-0.4172516,0-0.6954212-0.2781687-0.6954212-0.6954222c0-0.417254,0.2781696-0.6954226,0.6954212-0.6954226     C30.459507,5.1461263,30.7376766,5.4242949,30.7376766,5.8415489z M30.0422535,34.3538704     c-0.4172516,0-0.6954212,0.2781715-0.6954212,0.6954231s0.2781696,0.6954231,0.6954212,0.6954231     c0.4172535,0,0.6954231-0.2781715,0.6954231-0.6954231S30.459507,34.3538704,30.0422535,34.3538704z M22.3926048,7.2323937     c-0.4172535,0.1390853-0.4172535,0.6954226-0.2781715,0.9735913c0.1390858,0.4172535,0.6954231,0.4172535,0.9735928,0.2781687     c0.4172535-0.1390848,0.4172535-0.6954226,0.2781696-0.9735913C23.088026,7.0933089,22.6707745,6.9542251,22.3926048,7.2323937z      M36.996479,32.5457726c-0.4172516,0.1390839-0.4172516,0.6954231-0.2781715,0.9735947     c0.1390839,0.4172516,0.6954231,0.4172516,0.9735947,0.2781715c0.2781715-0.1390839,0.4172516-0.6954231,0.2781715-0.9735947     C37.830986,32.4066849,37.2746429,32.2676048,36.996479,32.5457726z M17.6637306,12.5176039     c-0.4172516-0.1390848-0.834507-0.1390848-0.9735909,0.2781696c-0.1390858,0.4172525-0.1390858,0.8345079,0.2781696,0.9735928     c0.4172516,0.1390848,0.834507,0.1390848,0.9735928-0.2781696C18.2200699,13.213026,18.0809841,12.7957735,17.6637306,12.5176039     z M43.1161957,27.1214771c-0.4172554-0.1390858-0.834507-0.1390858-0.9735947,0.2781696     c-0.13908,0.4172516-0.13908,0.834507,0.2781715,0.9735928c0.4172516,0.1390839,0.8345032,0.1390839,0.9735909-0.2781696     C43.5334473,27.8168983,43.3943634,27.3996468,43.1161957,27.1214771z M15.4383793,19.7499981     c-0.4172525,0-0.6954231,0.2781715-0.6954231,0.6954231c0,0.4172535,0.2781706,0.6954231,0.6954231,0.6954231     s0.6954212-0.2781696,0.6954212-0.6954231C16.1338005,20.0281696,15.8556337,19.7499981,15.4383793,19.7499981z      M44.6461258,19.7499981c-0.4172516,0-0.6954231,0.2781715-0.6954231,0.6954231     c0,0.4172535,0.2781715,0.6954231,0.6954231,0.6954231c0.4172554,0,0.6954231-0.2781696,0.6954231-0.6954231     C45.3415489,20.0281696,45.0633812,19.7499981,44.6461258,19.7499981z M16.9683094,27.1214771     c-0.4172535,0.1390839-0.4172535,0.6954212-0.2781696,0.9735928c0.1390839,0.4172516,0.6954212,0.4172516,0.9735909,0.2781696     c0.4172535-0.1390858,0.4172535-0.6954231,0.2781715-0.9735928     C17.8028164,27.1214771,17.385561,26.9823933,16.9683094,27.1214771z M42.2816887,12.5176039     c-0.4172516,0.1390848-0.4172516,0.6954222-0.2781677,0.9735928c0.13908,0.4172525,0.6954193,0.4172525,0.9735909,0.2781696     c0.4172516-0.1390848,0.4172516-0.6954222,0.2781715-0.9735928     C43.1161957,12.5176039,42.6989403,12.3785219,42.2816887,12.5176039z M23.088026,32.5457726     c-0.4172516-0.13908-0.834507-0.13908-0.9735928,0.2781715c-0.1390839,0.4172516-0.1390839,0.834507,0.2781715,0.9735947     c0.4172516,0.13908,0.834507,0.13908,0.9735909-0.2781715C23.5052814,33.102108,23.3661957,32.6848564,23.088026,32.5457726z      M37.6919022,7.2323937c-0.4172516-0.1390848-0.834507-0.1390848-0.9735947,0.2781687     c-0.13908,0.417254-0.13908,0.8345075,0.2781715,0.9735913c0.4172516,0.1390848,0.834507,0.1390848,0.9735947-0.2781687     C38.2482376,7.7887311,38.1091537,7.371479,37.6919022,7.2323937z"/>
			
				<linearGradient id="SVGID_5_" gradientUnits="userSpaceOnUse" x1="28.6514072" y1="895.6123657" x2="28.6514072" y2="945.1474609" gradientTransform="matrix(1 0 0 -1 0 939.331604)">
				<stop offset="0.0032366" style="stop-color:#00C2FF"/>
				<stop offset="1" style="stop-color:#0096CC"/>
			</linearGradient>
			<path class="st4" d="M28.2341537,12.1003513l-4.1725349,6.1197186l-3.8943653,0.4172516c0,0,0,11.6830978,0,14.4647865     c2.7816906,2.2253494,6.1197186,3.4771118,9.875,3.4771118c2.5035191,0,5.00704-0.5563393,7.0933094-1.669014v-6.536972     c0-9.1795769,0-15.5774651,0-15.5774651L28.2341537,12.1003513z"/>
			<g>
				
					<linearGradient id="SVGID_6_" gradientUnits="userSpaceOnUse" x1="22.0308456" y1="918.9557495" x2="60.4714355" y2="918.9557495" gradientTransform="matrix(1 0 0 -1 0 939.331604)">
					<stop offset="0" style="stop-color:#FFFFFF"/>
					<stop offset="0.516" style="stop-color:#CCE2E6"/>
					<stop offset="1" style="stop-color:#8FA1BB"/>
				</linearGradient>
				<path class="st5" d="M37.1355629,28.3732395c0,0.2781696,0,0.4172516-0.1390839,0.6954231      c-0.1390839,0.1390839-0.2781715,0.4172516-0.5563393,0.4172516c-0.6954231,0.4172516-1.3908463,0.6954231-2.2253494,0.9735928      c-0.834507,0.2781696-1.6690178,0.4172516-2.503521,0.4172516c-2.0862675,0-4.0334492-0.5563374-5.7024651-1.8080959      c-1.5299301-1.1126766-2.6426048-2.6426067-3.338028-4.5897884c-0.1390839-0.1390858-0.2781696-0.2781696-0.4172516-0.2781696      h-0.6954231c-0.4172516,0-0.6954231-0.1390858-0.9735928-0.4172535      c-0.2781696-0.2781696-0.4172516-0.5563374-0.4172516-0.9735928c0-0.4172535,0.1390839-0.6954212,0.4172516-0.9735909      c0.2781696-0.2781715,0.5563374-0.4172535,0.9735928-0.4172535h0.1390858c0.2781696,0,0.5563374-0.2781696,0.5563374-0.5563374      c0-0.1390858,0-0.2781696,0-0.5563374c0-0.2781696-0.2781696-0.5563374-0.5563374-0.5563374h-0.1390858      c-0.4172516,0-0.6954231-0.1390858-0.9735928-0.4172535c-0.2781696-0.2781696-0.4172516-0.5563374-0.4172516-0.9735909      s0.1390839-0.6954231,0.4172516-0.9735928c0.2781696-0.2781715,0.5563374-0.4172535,0.9735928-0.4172535h0.6954231      c0.2781696,0,0.4172516-0.1390839,0.5563374-0.4172516c0.4172516-1.2517605,0.9735928-2.3644381,1.8080978-3.338028      c0.834507-1.1126747,1.9471817-1.9471827,3.1989422-2.50352s2.6426048-0.8345079,4.1725368-0.8345079      c0.8345051,0,1.6690159,0.1390858,2.5035191,0.4172525c0.834507,0.2781706,1.5299301,0.5563374,2.2253494,0.9735928      c0.4172554,0.2781706,0.6954231,0.6954222,0.6954231,1.1126747c0,0.2781706-0.13908,0.6954231-0.2781677,0.9735928      c-0.2781715,0.2781706-0.5563431,0.4172525-0.9735947,0.4172525c-0.2781677,0-0.5563393,0-0.8345032-0.1390848      c-0.9735947-0.6954231-2.0862694-0.9735928-3.3380318-0.9735928c-1.5299263,0-2.7816887,0.4172525-3.8943634,1.1126747      c-0.9735928,0.6954231-1.6690159,1.5299301-2.2253532,2.50352c-0.1390858,0.2781696,0.1390858,0.6954231,0.4172516,0.6954231      h3.8943691c0.4172516,0,0.6954212,0.1390839,0.9735928,0.4172516c0.2781696,0.2781696,0.4172516,0.5563374,0.4172516,0.9735928      c0,0.4172535-0.139082,0.6954231-0.4172516,0.9735928c-0.2781715,0.2781696-0.5563412,0.4172516-0.9735928,0.4172516h-4.7288723      c-0.2781715,0-0.5563393,0.2781715-0.5563393,0.5563393l0,0c0,0.1390839,0,0.2781696,0,0.5563374      c0,0.2781696,0.2781715,0.4172516,0.5563393,0.4172516h4.5897884c0.4172535,0,0.6954231,0.1390858,0.9735928,0.4172535      c0.2781715,0.2781696,0.4172535,0.5563374,0.4172535,0.9735909s-0.139082,0.6954231-0.4172535,0.9735928      c-0.2781696,0.2781715-0.5563393,0.4172535-0.9735928,0.4172535h-3.6161976      c-0.4172516,0-0.6954212,0.4172516-0.4172516,0.834507c0.5563374,0.834507,1.2517605,1.6690159,2.0862675,2.2253532      c1.1126785,0.6954212,2.3644352,0.9735928,3.7552795,0.9735928c1.2517643,0,2.364439-0.2781715,3.3380299-0.9735928      c0.2781715-0.1390858,0.4172516-0.1390858,0.6954231-0.1390858c0.4172516,0,0.6954231,0.1390858,0.9735909,0.5563374      C36.996479,27.6778164,37.1355629,27.9559841,37.1355629,28.3732395z"/>
			</g>
		</g>
		
			<linearGradient id="SVGID_7_" gradientUnits="userSpaceOnUse" x1="30.1260681" y1="821.2698975" x2="30.1260681" y2="925.9245605" gradientTransform="matrix(1 0 0 -1 0 939.331604)">
			<stop offset="0" style="stop-color:#0090CF"/>
			<stop offset="0.8913" style="stop-color:#0071A1"/>
		</linearGradient>
		<path class="st6" d="M58.9718285,30.1813374c-2.2253494,0-4.4507027,0.5563374-6.3978844,1.5299263l-6.9542236,3.4771137    C43.6725349,36.1619682,41.5862656,36.5792198,39.5,36.5792198H23.5052814l5.5633812-5.5633774    c0.5563393-0.5563393,0.5563393-1.2517605,0-1.8080978l0,0c-0.8345089-0.8345089-1.9471836-1.1126747-2.9207764-0.8345089    l-9.875,2.5035229c-3.6161976,0.8345051-6.8151398,3.0598602-8.9014072,6.1197205L0,47.4278183v12.9348564h12.9348593    l3.338027-6.8151436c0.5563374-1.1126747,1.6690159-1.9471855,2.9207745-2.0862656l18.915493-2.9207726    c4.4507065-0.6954231,8.4841537-2.7816925,11.544014-5.8415527l10.2922554-10.2922554    C60.6408463,31.5721817,60.0845032,30.1813374,58.9718285,30.1813374z"/>
		
			<linearGradient id="SVGID_8_" gradientUnits="userSpaceOnUse" x1="24.8265858" y1="863.5886841" x2="24.8265858" y2="902.2282104" gradientTransform="matrix(1 0 0 -1 0 939.331604)">
			<stop offset="0" style="stop-color:#0090CF"/>
			<stop offset="0.8913" style="stop-color:#0071A1"/>
		</linearGradient>
		<path class="st7" d="M30.0422535,49.7922478V36.7183037h-6.3978863l0.9735928-0.9735909l-3.338028,3.338028    c-0.9735928,0.9735947-1.6690159,2.3644371-1.6690159,3.8943672v8.4841499L30.0422535,49.7922478z"/>
		
			<linearGradient id="SVGID_9_" gradientUnits="userSpaceOnUse" x1="55.286087" y1="914.1817017" x2="55.286087" y2="955.3317871" gradientTransform="matrix(1 0 0 -1 0 939.331604)">
			<stop offset="0" style="stop-color:#FFFFFF"/>
			<stop offset="0.5164" style="stop-color:#E1E1E5"/>
			<stop offset="1" style="stop-color:#A0A3B3"/>
		</linearGradient>
		<path class="st8" d="M60.0845032,6.8151402l-4.1725349-6.3978863C55.6338005,0,54.9383774,0,54.6602058,0.4172538    l-4.1725349,6.3978872c-0.2781677,0.5563378,0,1.1126766,0.6954231,1.1126766h1.2517624    c0.2781715,0,0.5563393,0.2781682,0.5563393,0.5563369v1.5299292c0,1.2517595,0.9735947,2.2253523,2.0862694,2.2253523l0,0    c1.2517624,0,2.2253494-0.9735928,2.2253494-2.2253523V8.4841537c0-0.2781687,0.2781715-0.5563374,0.5563393-0.5563374h1.5299301    C60.0845032,7.9278164,60.3626747,7.371479,60.0845032,6.8151402z"/>
		
			<linearGradient id="SVGID_10_" gradientUnits="userSpaceOnUse" x1="4.941812" y1="893.2035522" x2="4.941812" y2="934.3536377" gradientTransform="matrix(1 0 0 -1 0 939.331604)">
			<stop offset="0" style="stop-color:#FFFFFF"/>
			<stop offset="0.5164" style="stop-color:#E1E1E5"/>
			<stop offset="1" style="stop-color:#A0A3B3"/>
		</linearGradient>
		<path class="st9" d="M9.7359142,28.3732395l-4.1725354-6.3978882c-0.2781687-0.4172516-0.9735913-0.4172516-1.25176,0    l-4.1725349,6.3978882c-0.2781687,0.5563374,0,1.1126747,0.6954225,1.1126747h1.5299299    c0.2781689,0,0.5563376,0.2781696,0.5563376,0.5563374v1.5299301c0,1.2517624,0.9735913,2.0862694,2.2253525,2.0862694l0,0    c1.25176,0,2.2253528-0.9735947,2.2253528-2.0862694v-1.3908443c0-0.2781715,0.2781701-0.5563374,0.5563374-0.5563374h1.5299301    C9.7359142,29.4859142,10.0140839,28.9295769,9.7359142,28.3732395z"/>
	</g>
</g>
</svg>