<?xml version="1.0" encoding="UTF-8"?>
<!-- Generator: Adobe Illustrator 24.1.2, SVG Export Plug-In . SVG Version: 6.00 Build 0)  -->
<svg version="1.1" id="Livello_1" xmlns="http://www.w3.org/2000/svg" xmlns:xlink="http://www.w3.org/1999/xlink" x="0px" y="0px" width="60.4181976px" height="60.4181557px" viewBox="0 0 60.4181976 60.4181557" style="enable-background:new 0 0 60.4181976 60.4181557;" xml:space="preserve">
<style type="text/css">
	.st0{fill:url(#SVGID_1_);}
	.st1{fill:url(#SVGID_2_);}
	.st2{fill:url(#SVGID_3_);}
	.st3{fill:url(#SVGID_4_);}
	.st4{fill:url(#SVGID_5_);}
	.st5{fill:url(#SVGID_6_);}
	.st6{fill:url(#SVGID_7_);}
	.st7{fill:url(#SVGID_8_);}
	.st8{fill:url(#SVGID_9_);}
	.st9{fill:url(#SVGID_10_);}
	.st10{fill:url(#SVGID_11_);}
	.st11{fill:url(#SVGID_12_);}
	.st12{fill:url(#SVGID_13_);}
	.st13{fill:url(#SVGID_14_);}
	.st14{fill:url(#SVGID_15_);}
	.st15{fill:#FFFFFF;}
	.st16{fill:url(#SVGID_16_);}
	.st17{fill:url(#SVGID_17_);}
	.st18{fill:url(#SVGID_18_);}
	.st19{fill:url(#SVGID_19_);}
	.st20{fill:url(#SVGID_20_);}
	.st21{fill:url(#SVGID_21_);}
	.st22{fill:url(#SVGID_22_);}
	.st23{fill:url(#SVGID_23_);}
	.st24{fill:url(#SVGID_24_);}
	.st25{fill:url(#SVGID_25_);}
	.st26{fill:url(#SVGID_26_);}
	.st27{fill:url(#SVGID_27_);}
	.st28{fill:url(#SVGID_28_);}
	.st29{fill:url(#SVGID_29_);}
	.st30{fill:url(#SVGID_30_);}
	.st31{fill:url(#SVGID_31_);}
	.st32{fill:url(#SVGID_32_);}
	.st33{fill:url(#SVGID_33_);}
	.st34{fill:url(#SVGID_34_);}
	.st35{fill:url(#SVGID_35_);}
	.st36{fill:url(#SVGID_36_);}
	.st37{fill:url(#SVGID_37_);}
	.st38{fill:url(#SVGID_38_);}
	.st39{fill:url(#SVGID_39_);}
	.st40{fill:url(#SVGID_40_);}
	.st41{fill:url(#SVGID_41_);}
	.st42{fill:url(#SVGID_42_);}
	.st43{fill:url(#SVGID_43_);}
	.st44{fill:url(#SVGID_44_);}
	.st45{fill:url(#SVGID_45_);}
	.st46{fill:url(#SVGID_46_);}
	.st47{fill:url(#SVGID_47_);}
	.st48{fill:url(#SVGID_48_);}
	.st49{fill:url(#SVGID_49_);}
	.st50{fill:url(#SVGID_50_);}
	.st51{fill:url(#SVGID_51_);}
	.st52{fill:url(#SVGID_52_);}
	.st53{fill:url(#SVGID_53_);}
	.st54{fill:url(#SVGID_54_);}
	.st55{fill:url(#SVGID_55_);}
	.st56{fill:url(#SVGID_56_);}
	.st57{fill:url(#SVGID_57_);}
	.st58{fill:url(#SVGID_58_);}
	.st59{fill:url(#SVGID_59_);}
	.st60{fill:url(#SVGID_60_);}
	.st61{fill:url(#SVGID_61_);}
	.st62{fill:url(#SVGID_62_);}
	.st63{fill:url(#SVGID_63_);}
	.st64{fill:url(#SVGID_64_);}
	.st65{fill:url(#SVGID_65_);}
	.st66{fill:url(#SVGID_66_);}
	.st67{fill:url(#SVGID_67_);}
	.st68{fill:url(#SVGID_68_);}
	.st69{fill:#006592;}
	.st70{fill:url(#SVGID_69_);}
	.st71{fill:url(#SVGID_70_);}
	.st72{fill:url(#SVGID_71_);}
	.st73{fill:url(#SVGID_72_);}
	.st74{fill:url(#SVGID_73_);}
	.st75{fill:url(#SVGID_74_);}
	.st76{fill:url(#SVGID_75_);}
	.st77{fill:url(#SVGID_76_);}
	.st78{fill:url(#SVGID_77_);}
	.st79{fill:url(#SVGID_78_);}
	.st80{fill:url(#SVGID_79_);}
	.st81{fill:url(#SVGID_80_);}
	.st82{fill:url(#SVGID_81_);}
	.st83{fill:url(#SVGID_82_);}
	.st84{fill:url(#SVGID_83_);}
	.st85{fill:url(#SVGID_84_);}
	.st86{fill:url(#SVGID_85_);}
	.st87{fill:url(#SVGID_86_);}
	.st88{fill:url(#SVGID_87_);}
	.st89{fill:url(#SVGID_88_);}
	.st90{fill:url(#SVGID_89_);}
	.st91{fill:url(#SVGID_90_);}
	.st92{fill:url(#SVGID_91_);}
	.st93{fill:url(#SVGID_92_);}
	.st94{fill:url(#SVGID_93_);}
	.st95{fill:url(#SVGID_94_);}
	.st96{fill:url(#SVGID_95_);}
	.st97{fill:url(#SVGID_96_);}
	.st98{fill:url(#SVGID_97_);}
	.st99{fill:url(#SVGID_98_);}
	.st100{fill:url(#SVGID_99_);}
	.st101{fill:url(#SVGID_100_);}
	.st102{fill:url(#SVGID_101_);}
	.st103{fill:url(#SVGID_102_);}
	.st104{fill:url(#SVGID_103_);}
	.st105{fill:url(#SVGID_104_);}
	.st106{fill:url(#SVGID_105_);}
	.st107{fill:url(#SVGID_106_);}
	.st108{fill:url(#SVGID_107_);}
	.st109{fill:url(#SVGID_108_);}
	.st110{fill:url(#SVGID_109_);}
	.st111{fill:url(#SVGID_110_);}
	.st112{fill:url(#SVGID_111_);}
	.st113{fill:url(#SVGID_112_);}
	.st114{fill:url(#SVGID_113_);}
	.st115{fill:url(#SVGID_114_);}
	.st116{fill:url(#SVGID_115_);}
	.st117{fill:url(#SVGID_116_);}
	.st118{fill:url(#SVGID_117_);}
	.st119{fill:url(#SVGID_118_);}
	.st120{fill:url(#SVGID_119_);}
	.st121{fill:url(#SVGID_120_);}
	.st122{fill:url(#SVGID_121_);}
	.st123{fill:url(#SVGID_122_);}
	.st124{fill:url(#SVGID_123_);}
	.st125{fill:url(#SVGID_124_);}
	.st126{fill:url(#SVGID_125_);}
	.st127{fill:url(#SVGID_126_);}
	.st128{fill:url(#SVGID_127_);}
	.st129{fill:url(#SVGID_128_);}
	.st130{fill:url(#SVGID_129_);}
	.st131{fill:url(#SVGID_130_);}
	.st132{fill:url(#SVGID_131_);}
	.st133{fill:url(#SVGID_132_);}
	.st134{fill:url(#SVGID_133_);}
	.st135{fill:url(#SVGID_134_);}
	.st136{fill:url(#SVGID_135_);}
	.st137{fill:url(#SVGID_136_);}
	.st138{fill:url(#SVGID_137_);}
	.st139{fill:url(#SVGID_138_);}
	.st140{fill:url(#SVGID_139_);}
	.st141{fill:url(#SVGID_140_);}
</style>
<g>
	<g>
		<g>
			
				<linearGradient id="SVGID_1_" gradientUnits="userSpaceOnUse" x1="30.2090988" y1="59.1226234" x2="30.2090988" y2="98.8903122" gradientTransform="matrix(1 0 0 -1 0 88.0430069)">
				<stop offset="0.0032366" style="stop-color:#00C2FF"/>
				<stop offset="1" style="stop-color:#0096CC"/>
			</linearGradient>
			<path class="st0" d="M57.4717941,60.4181557c1.8693657-3.9284744,2.9464035-8.3066368,2.9464035-12.9467506     c0-16.6840553-13.5250473-30.2090988-30.2090988-30.2090988S0,30.7873497,0,47.471405     c0,4.6401138,1.0770174,9.0182762,2.9463847,12.9467506H57.4717941z"/>
			
				<linearGradient id="SVGID_2_" gradientUnits="userSpaceOnUse" x1="30.2090969" y1="6.6453118" x2="30.2090969" y2="110.2486191" gradientTransform="matrix(1 0 0 -1 0 88.0430069)">
				<stop offset="0.0032366" style="stop-color:#00C2FF"/>
				<stop offset="1" style="stop-color:#0096CC"/>
			</linearGradient>
			<path class="st1" d="M52.6102829,60.4181557c2.2080002-3.8116684,3.4923248-8.224781,3.4923248-12.9467506     c0-14.3007011-11.592968-25.8935146-25.8935089-25.8935146c-14.3005648,0-25.8935127,11.5928135-25.8935127,25.8935146     c0,4.7219696,1.2843089,9.1350822,3.4923062,12.9467506H52.6102829z"/>
			
				<linearGradient id="SVGID_3_" gradientUnits="userSpaceOnUse" x1="50.7081299" y1="47.7033463" x2="50.7081299" y2="121.5143509" gradientTransform="matrix(1 0 0 -1 0 88.0430069)">
				<stop offset="0.0032366" style="stop-color:#00C2FF"/>
				<stop offset="1" style="stop-color:#0096CC"/>
			</linearGradient>
			<path class="st2" d="M44.5198555,48.8354149c0.661869,0.6617241,1.0335846,1.5592194,1.0335846,2.4949837v5.468277     c0,0.9359093-0.3717155,1.8334045-1.0335846,2.4951286l-1.1242065,1.1243515h12.4672928l-1.2049103-1.3555222     c-0.459465-0.5168648-0.7132149-1.1843414-0.7132149-1.875843v-2.0724869c0-0.7488976,0.2974777-1.4670143,0.8269997-1.9965324     l5.6463814-5.6465149c0-9.441349-4.3355904-17.8655148-11.1194038-23.4051437l-7.5570107,7.557024     c-0.4761543,0.4761524-0.743721,1.1220493-0.743721,1.7954235v10.8432007c0,0.6735153,0.2675667,1.3194122,0.743721,1.7955704     L44.5198555,48.8354149z"/>
			
				<linearGradient id="SVGID_4_" gradientUnits="userSpaceOnUse" x1="10.7889643" y1="40.2291336" x2="10.7889643" y2="138.9760132" gradientTransform="matrix(1 0 0 -1 0 88.0430069)">
				<stop offset="0.0032366" style="stop-color:#00C2FF"/>
				<stop offset="1" style="stop-color:#0096CC"/>
			</linearGradient>
			<path class="st3" d="M8.6311722,60.4181557l0.5105247-0.5105286c1.0547285-1.0547333,1.6472683-2.4852028,1.6472683-3.9768181     v-2.8567696c0-0.824131,0.3273993-1.61446,0.9100046-2.1972084l7.5322771-7.532135     c1.5025444-1.5025444,2.3466816-3.5405045,2.3466816-5.6655045V18.5299358     C9.1025686,22.2456551,0.0000013,33.7888412,0.0000013,47.471405c0,4.6366577,1.0544418,9.0228806,2.9245279,12.9467506     H8.6311722z"/>
			
				<linearGradient id="SVGID_5_" gradientUnits="userSpaceOnUse" x1="30.2090988" y1="4.9426279" x2="30.2090988" y2="50.5135918" gradientTransform="matrix(1 0 0 -1 0 88.0430069)">
				<stop offset="0" style="stop-color:#0090CF"/>
				<stop offset="0.8913252" style="stop-color:#0071A1"/>
			</linearGradient>
			<circle class="st4" cx="30.2090988" cy="47.471405" r="1.6183439"/>
			
				<linearGradient id="SVGID_6_" gradientUnits="userSpaceOnUse" x1="48.5503349" y1="4.5114551" x2="48.5503349" y2="69.7980728" gradientTransform="matrix(1 0 0 -1 0 88.0430069)">
				<stop offset="0" style="stop-color:#0090CF"/>
				<stop offset="0.8913252" style="stop-color:#0071A1"/>
			</linearGradient>
			<path class="st5" d="M44.5198555,48.8354149c0.661869,0.6617241,1.0335846,1.5592194,1.0335846,2.4949837v5.468277     c0,0.9359093-0.3717155,1.8334045-1.0335846,2.4951286l-1.1242065,1.1243515h9.2265778     c0.5066452-0.8739052,0.9678383-1.7775879,1.3710594-2.7132034c-0.0316467-0.1698952-0.0484695-0.3430901-0.0484695-0.5181618     v-2.0724869c0-0.7488976,0.2974777-1.4670143,0.8269997-1.9965324l0.872612-0.8726158     c0.2890015-1.5491486,0.4581795-3.1407318,0.4581795-4.7737503c0-8.2506828-3.8722382-15.583725-9.8837051-20.3254013     l-4.4771194,4.4771328c-0.4761543,0.4761524-0.743721,1.1220493-0.743721,1.7954235v10.8432007     c0,0.6735153,0.2675667,1.3194122,0.743721,1.7955704L44.5198555,48.8354149z"/>
			
				<linearGradient id="SVGID_7_" gradientUnits="userSpaceOnUse" x1="12.9467573" y1="-15.4261713" x2="12.9467573" y2="72.3348846" gradientTransform="matrix(1 0 0 -1 0 88.0430069)">
				<stop offset="0" style="stop-color:#0090CF"/>
				<stop offset="0.8913252" style="stop-color:#0071A1"/>
			</linearGradient>
			<path class="st6" d="M8.6311722,60.4181557l0.5105247-0.5105286c1.0547285-1.0547333,1.6472683-2.4852028,1.6472683-3.9768181     v-2.8567696c0-0.824131,0.3273993-1.61446,0.9100046-2.1972084l7.5322771-7.532135     c1.5025444-1.5025444,2.3466816-3.5405045,2.3466816-5.6655045V23.0828781     C11.5276394,26.641222,4.3155866,36.201973,4.3155866,47.471405c0,4.7259941,1.2997012,9.1340752,3.5133095,12.9467506H8.6311722     z"/>
			
				<linearGradient id="SVGID_8_" gradientUnits="userSpaceOnUse" x1="23.3655052" y1="3.9418602" x2="23.3655052" y2="47.5771523" gradientTransform="matrix(1 0 0 -1 0 88.0430069)">
				<stop offset="0" style="stop-color:#0090CF"/>
				<stop offset="0.8913252" style="stop-color:#0071A1"/>
			</linearGradient>
			<path class="st7" d="M20.9980469,59.8382874c0.2439747,0.2438278,0.5220413,0.4269524,0.8120499,0.5798683h3.1108189     c0.2900047-0.152916,0.5680752-0.3360405,0.812048-0.5798683l1.3681831-1.3683243     c1.3076229-1.3074837,1.3076229-3.4272957,0-4.7349167l-1.3681831-1.3681908c-1.307621-1.307621-3.4274368-1.307621-4.7349167,0     l-1.3681831,1.3681908c-1.3076229,1.307621-1.3076229,3.427433,0,4.7349167L20.9980469,59.8382874z"/>
			<g>
				<g>
					
						<linearGradient id="SVGID_9_" gradientUnits="userSpaceOnUse" x1="30.209095" y1="37.4061317" x2="30.209095" y2="68.5405121" gradientTransform="matrix(1 0 0 -1 0 88.0430069)">
						<stop offset="0.0032366" style="stop-color:#00C2FF"/>
						<stop offset="1" style="stop-color:#0096CC"/>
					</linearGradient>
					<ellipse class="st8" cx="30.2090931" cy="27.972868" rx="7.2606907" ry="1.0374674"/>
					
						<linearGradient id="SVGID_10_" gradientUnits="userSpaceOnUse" x1="30.2090893" y1="41.8376808" x2="30.2090893" y2="83.6476059" gradientTransform="matrix(1 0 0 -1 0 88.0430069)">
						<stop offset="0" style="stop-color:#0090CF"/>
						<stop offset="0.8913252" style="stop-color:#0071A1"/>
					</linearGradient>
					<path class="st9" d="M38.6017494,20.2617798l-7.5673752,7.5673809c-0.4557285,0.4557247-1.1948452,0.4557247-1.6505699,0       l-7.5673771-7.5673809c-4.6352272-4.6352272-4.6352272-12.1502419,0-16.7854691l0,0       c4.6350822-4.6350822,12.1502399-4.6350822,16.7853222,0l0,0       C43.2369766,8.1115379,43.2369766,15.6265526,38.6017494,20.2617798z"/>
					
						<linearGradient id="SVGID_11_" gradientUnits="userSpaceOnUse" x1="33.1499596" y1="37.2169456" x2="33.1499596" y2="77.2511063" gradientTransform="matrix(1 0 0 -1 0 88.0430069)">
						<stop offset="0" style="stop-color:#0090CF"/>
						<stop offset="0.8913252" style="stop-color:#0071A1"/>
					</linearGradient>
					<path class="st10" d="M24.2996254,1.5882423L24.2996254,1.5882423       c3.6131401,1.5606599,5.9526272,5.1198673,5.9526272,9.0556803v17.5228596       c0.2841015-0.0105019,0.5653439-0.1208363,0.7821217-0.3376217l7.3444023-7.3444099       c4.5971107-4.5971031,4.9072571-12.1111126,0.415596-16.8113613       C34.9211349-0.3798075,28.9118233-1.0658416,24.2996254,1.5882423z"/>
					
						<linearGradient id="SVGID_12_" gradientUnits="userSpaceOnUse" x1="30.2090893" y1="63.0931549" x2="30.2090893" y2="99.9228287" gradientTransform="matrix(1 0 0 -1 0 88.0430069)">
						<stop offset="0" style="stop-color:#FFFFFF"/>
						<stop offset="0.5163966" style="stop-color:#E1E1E5"/>
						<stop offset="1" style="stop-color:#A0A3B3"/>
					</linearGradient>
					<path class="st11" d="M35.9140053,11.8689747c0,3.1508074-2.5542526,5.7049141-5.7049065,5.7049141       c-3.1506748,0-5.7049255-2.5541067-5.7049255-5.7049141c0-3.1506653,2.5542507-5.7047734,5.7049255-5.7047734       C33.3597527,6.1642013,35.9140053,8.7183094,35.9140053,11.8689747z"/>
					
						<linearGradient id="SVGID_13_" gradientUnits="userSpaceOnUse" x1="32.5653267" y1="65.4866638" x2="32.5653267" y2="88.1472626" gradientTransform="matrix(1 0 0 -1 0 88.0430069)">
						<stop offset="0" style="stop-color:#FFFFFF"/>
						<stop offset="0.5163966" style="stop-color:#E1E1E5"/>
						<stop offset="1" style="stop-color:#A0A3B3"/>
					</linearGradient>
					<path class="st12" d="M30.2090988,6.1642013c-0.3392162,0-0.6695004,0.0351005-0.9924507,0.0917788       c0.6651764,1.337832,1.0356045,2.8321748,1.0356045,4.3877997v6.9279518       c3.1306629-0.0235901,5.6617527-2.5666208,5.6617527-5.7027569       C35.9140053,8.7183094,33.3597527,6.1642013,30.2090988,6.1642013z"/>
				</g>
			</g>
		</g>
	</g>
</g>
</svg>