<?xml version="1.0" encoding="UTF-8"?>
<!-- Generator: Adobe Illustrator 24.1.2, SVG Export Plug-In . SVG Version: 6.00 Build 0)  -->
<svg version="1.1" id="Livello_1" xmlns="http://www.w3.org/2000/svg" xmlns:xlink="http://www.w3.org/1999/xlink" x="0px" y="0px" width="60.3403473px" height="60.5435905px" viewBox="0 0 60.3403473 60.5435905" style="enable-background:new 0 0 60.3403473 60.5435905;" xml:space="preserve">
<style type="text/css">
	.st0{fill:url(#SVGID_1_);}
	.st1{fill:url(#SVGID_2_);}
	.st2{fill:url(#SVGID_3_);}
	.st3{fill:url(#SVGID_4_);}
	.st4{fill:url(#SVGID_5_);}
	.st5{fill:url(#SVGID_6_);}
	.st6{fill:url(#SVGID_7_);}
	.st7{fill:url(#SVGID_8_);}
	.st8{fill:url(#SVGID_9_);}
	.st9{fill:url(#SVGID_10_);}
	.st10{fill:url(#SVGID_11_);}
	.st11{fill:url(#SVGID_12_);}
	.st12{fill:url(#SVGID_13_);}
	.st13{fill:url(#SVGID_14_);}
	.st14{fill:url(#SVGID_15_);}
	.st15{fill:#FFFFFF;}
	.st16{fill:url(#SVGID_16_);}
	.st17{fill:url(#SVGID_17_);}
	.st18{fill:url(#SVGID_18_);}
	.st19{fill:url(#SVGID_19_);}
	.st20{fill:url(#SVGID_20_);}
	.st21{fill:url(#SVGID_21_);}
	.st22{fill:url(#SVGID_22_);}
	.st23{fill:url(#SVGID_23_);}
	.st24{fill:url(#SVGID_24_);}
	.st25{fill:url(#SVGID_25_);}
	.st26{fill:url(#SVGID_26_);}
	.st27{fill:url(#SVGID_27_);}
	.st28{fill:url(#SVGID_28_);}
	.st29{fill:url(#SVGID_29_);}
	.st30{fill:url(#SVGID_30_);}
	.st31{fill:url(#SVGID_31_);}
	.st32{fill:url(#SVGID_32_);}
	.st33{fill:url(#SVGID_33_);}
	.st34{fill:url(#SVGID_34_);}
	.st35{fill:url(#SVGID_35_);}
	.st36{fill:url(#SVGID_36_);}
	.st37{fill:url(#SVGID_37_);}
	.st38{fill:url(#SVGID_38_);}
	.st39{fill:url(#SVGID_39_);}
	.st40{fill:url(#SVGID_40_);}
	.st41{fill:url(#SVGID_41_);}
	.st42{fill:url(#SVGID_42_);}
	.st43{fill:url(#SVGID_43_);}
	.st44{fill:url(#SVGID_44_);}
	.st45{fill:url(#SVGID_45_);}
	.st46{fill:url(#SVGID_46_);}
	.st47{fill:url(#SVGID_47_);}
	.st48{fill:url(#SVGID_48_);}
	.st49{fill:url(#SVGID_49_);}
	.st50{fill:url(#SVGID_50_);}
	.st51{fill:url(#SVGID_51_);}
	.st52{fill:url(#SVGID_52_);}
	.st53{fill:url(#SVGID_53_);}
	.st54{fill:url(#SVGID_54_);}
	.st55{fill:url(#SVGID_55_);}
	.st56{fill:url(#SVGID_56_);}
	.st57{fill:url(#SVGID_57_);}
	.st58{fill:url(#SVGID_58_);}
	.st59{fill:url(#SVGID_59_);}
	.st60{fill:url(#SVGID_60_);}
	.st61{fill:url(#SVGID_61_);}
	.st62{fill:url(#SVGID_62_);}
	.st63{fill:url(#SVGID_63_);}
	.st64{fill:url(#SVGID_64_);}
	.st65{fill:url(#SVGID_65_);}
	.st66{fill:url(#SVGID_66_);}
	.st67{fill:url(#SVGID_67_);}
	.st68{fill:url(#SVGID_68_);}
	.st69{fill:#006592;}
	.st70{fill:url(#SVGID_69_);}
	.st71{fill:url(#SVGID_70_);}
	.st72{fill:url(#SVGID_71_);}
	.st73{fill:url(#SVGID_72_);}
	.st74{fill:url(#SVGID_73_);}
	.st75{fill:url(#SVGID_74_);}
	.st76{fill:url(#SVGID_75_);}
	.st77{fill:url(#SVGID_76_);}
	.st78{fill:url(#SVGID_77_);}
	.st79{fill:url(#SVGID_78_);}
	.st80{fill:url(#SVGID_79_);}
	.st81{fill:url(#SVGID_80_);}
	.st82{fill:url(#SVGID_81_);}
	.st83{fill:url(#SVGID_82_);}
	.st84{fill:url(#SVGID_83_);}
	.st85{fill:url(#SVGID_84_);}
	.st86{fill:url(#SVGID_85_);}
	.st87{fill:url(#SVGID_86_);}
	.st88{fill:url(#SVGID_87_);}
	.st89{fill:url(#SVGID_88_);}
	.st90{fill:url(#SVGID_89_);}
	.st91{fill:url(#SVGID_90_);}
	.st92{fill:url(#SVGID_91_);}
	.st93{fill:url(#SVGID_92_);}
	.st94{fill:url(#SVGID_93_);}
	.st95{fill:url(#SVGID_94_);}
	.st96{fill:url(#SVGID_95_);}
	.st97{fill:url(#SVGID_96_);}
	.st98{fill:url(#SVGID_97_);}
	.st99{fill:url(#SVGID_98_);}
	.st100{fill:url(#SVGID_99_);}
	.st101{fill:url(#SVGID_100_);}
	.st102{fill:url(#SVGID_101_);}
	.st103{fill:url(#SVGID_102_);}
	.st104{fill:url(#SVGID_103_);}
	.st105{fill:url(#SVGID_104_);}
	.st106{fill:url(#SVGID_105_);}
	.st107{fill:url(#SVGID_106_);}
	.st108{fill:url(#SVGID_107_);}
	.st109{fill:url(#SVGID_108_);}
	.st110{fill:url(#SVGID_109_);}
	.st111{fill:url(#SVGID_110_);}
	.st112{fill:url(#SVGID_111_);}
	.st113{fill:url(#SVGID_112_);}
	.st114{fill:url(#SVGID_113_);}
	.st115{fill:url(#SVGID_114_);}
	.st116{fill:url(#SVGID_115_);}
	.st117{fill:url(#SVGID_116_);}
	.st118{fill:url(#SVGID_117_);}
	.st119{fill:url(#SVGID_118_);}
	.st120{fill:url(#SVGID_119_);}
	.st121{fill:url(#SVGID_120_);}
	.st122{fill:url(#SVGID_121_);}
	.st123{fill:url(#SVGID_122_);}
	.st124{fill:url(#SVGID_123_);}
	.st125{fill:url(#SVGID_124_);}
	.st126{fill:url(#SVGID_125_);}
	.st127{fill:url(#SVGID_126_);}
	.st128{fill:url(#SVGID_127_);}
	.st129{fill:url(#SVGID_128_);}
	.st130{fill:url(#SVGID_129_);}
	.st131{fill:url(#SVGID_130_);}
	.st132{fill:url(#SVGID_131_);}
	.st133{fill:url(#SVGID_132_);}
	.st134{fill:url(#SVGID_133_);}
	.st135{fill:url(#SVGID_134_);}
	.st136{fill:url(#SVGID_135_);}
	.st137{fill:url(#SVGID_136_);}
	.st138{fill:url(#SVGID_137_);}
	.st139{fill:url(#SVGID_138_);}
	.st140{fill:url(#SVGID_139_);}
	.st141{fill:url(#SVGID_140_);}
</style>
<g>
	<g>
		
			<linearGradient id="SVGID_1_" gradientUnits="userSpaceOnUse" x1="25.992342" y1="833.3914795" x2="25.992342" y2="947.5388794" gradientTransform="matrix(1 0 0 -1 0 939.5125122)">
			<stop offset="0.0032366" style="stop-color:#00C2FF"/>
			<stop offset="1" style="stop-color:#0096CC"/>
		</linearGradient>
		<circle class="st0" cx="25.992342" cy="25.9923401" r="25.992342"/>
		
			<linearGradient id="SVGID_2_" gradientUnits="userSpaceOnUse" x1="25.9923401" y1="887.5220337" x2="25.9923401" y2="970.0540771" gradientTransform="matrix(1 0 0 -1 0 939.5125122)">
			<stop offset="0.0032366" style="stop-color:#00C2FF"/>
			<stop offset="1" style="stop-color:#0096CC"/>
		</linearGradient>
		<circle class="st1" cx="25.9923401" cy="25.9923382" r="20.5109596"/>
		
			<linearGradient id="SVGID_3_" gradientUnits="userSpaceOnUse" x1="25.992342" y1="897.9780273" x2="25.992342" y2="979.8448486" gradientTransform="matrix(1 0 0 -1 0 939.5125122)">
			<stop offset="0.0032366" style="stop-color:#00C2FF"/>
			<stop offset="1" style="stop-color:#0096CC"/>
		</linearGradient>
		<circle class="st2" cx="25.992342" cy="25.9923401" r="18.565958"/>
		
			<linearGradient id="SVGID_4_" gradientUnits="userSpaceOnUse" x1="25.9923401" y1="912.4598389" x2="25.9923401" y2="1095.0218506" gradientTransform="matrix(1 0 0 -1 0 939.5125122)">
			<stop offset="0.0032366" style="stop-color:#00C2FF"/>
			<stop offset="1" style="stop-color:#0096CC"/>
		</linearGradient>
		<path class="st3" d="M26.8764343,7.4263825c0,0.5304561-0.3536377,0.8840928-0.8840923,0.8840928    s-0.8840942-0.3536367-0.8840942-0.8840928s0.3536396-0.8840933,0.8840942-0.8840933S26.8764343,6.8959265,26.8764343,7.4263825z     M25.992342,43.674202c-0.5304546,0-0.8840942,0.3536415-0.8840942,0.8840942    c0,0.5304565,0.3536396,0.8840942,0.8840942,0.8840942s0.8840923-0.3536377,0.8840923-0.8840942    C26.8764343,44.0278435,26.5227966,43.674202,25.992342,43.674202z M16.267313,9.1945686    c-0.5304546,0.1768198-0.5304546,0.8840933-0.3536386,1.23773c0.1768198,0.5304565,0.8840933,0.5304565,1.237731,0.3536377    c0.5304546-0.1768198,0.5304546-0.8840933,0.3536396-1.237731C17.1514053,9.0177498,16.6209507,8.8409319,16.267313,9.1945686z     M34.8332748,41.3755608c-0.5304565,0.1768188-0.5304565,0.8840942-0.3536415,1.2377319    c0.1768188,0.5304565,0.8840942,0.5304565,1.2377319,0.3536415c0.3536415-0.1768188,0.5304565-0.8840942,0.3536415-1.2377319    C35.8941841,41.1987381,35.1869049,41.0219231,34.8332748,41.3755608z M10.2554798,15.9136763    c-0.5304546-0.1768198-1.0609121-0.1768198-1.2377319,0.3536386c-0.1768188,0.5304546-0.1768188,1.0609112,0.3536386,1.2377319    c0.5304546,0.1768188,1.0609121,0.1768188,1.2377319-0.3536396    C10.9627533,16.7977695,10.7859344,16.2673149,10.2554798,15.9136763z M42.6132889,34.4796333    c-0.5304527-0.1768188-1.0609093-0.1768188-1.2377319,0.3536377c-0.176815,0.5304565-0.176815,1.0609131,0.3536377,1.2377319    c0.5304565,0.1768188,1.0609093,0.1768188,1.2377319-0.3536377C43.1437454,35.3637276,42.9669266,34.833271,42.6132889,34.4796333    z M7.4263806,25.1082458c-0.5304542,0-0.8840928,0.3536396-0.8840928,0.8840942s0.3536386,0.8840923,0.8840928,0.8840923    s0.8840938-0.3536377,0.8840938-0.8840923S7.9568386,25.1082458,7.4263806,25.1082458z M44.5583,25.1082458    c-0.5304565,0-0.8840942,0.3536396-0.8840942,0.8840942s0.3536377,0.8840923,0.8840942,0.8840923    c0.5304527,0,0.8840904-0.3536377,0.8840904-0.8840923S45.0887527,25.1082458,44.5583,25.1082458z M9.3713865,34.4796333    c-0.5304546,0.1768188-0.5304546,0.8840942-0.3536386,1.2377319c0.1768198,0.5304527,0.8840933,0.5304527,1.2377319,0.3536377    c0.5304546-0.1768188,0.5304546-0.8840942,0.3536386-1.2377319C10.4322987,34.4796333,9.9018412,34.3028183,9.3713865,34.4796333z     M41.5523796,15.9136763c-0.5304527,0.1768198-0.5304527,0.8840933-0.3536377,1.237731    c0.176815,0.5304546,0.8840942,0.5304546,1.2377319,0.3536396c0.5304527-0.1768208,0.5304527-0.8840942,0.3536377-1.2377319    C42.6132889,15.9136763,42.0828362,15.7368603,41.5523796,15.9136763z M17.1514053,41.3755608    c-0.5304546-0.176815-1.0609112-0.176815-1.237731,0.3536415c-0.1768198,0.5304527-0.1768198,1.0609093,0.3536386,1.2377319    c0.5304546,0.176815,1.0609131,0.176815,1.2377319-0.3536415C17.6818638,42.0828323,17.5050449,41.5523796,17.1514053,41.3755608z     M35.7173653,9.1945686c-0.5304527-0.1768188-1.0609093-0.1768188-1.2377319,0.3536367    c-0.176815,0.5304565-0.176815,1.0609131,0.3536415,1.237731c0.5304527,0.1768188,1.0609093,0.1768188,1.2377319-0.3536377    C36.4246368,9.9018431,36.2478218,9.3713884,35.7173653,9.1945686z"/>
		<g>
			<g>
				<linearGradient id="SVGID_5_" gradientUnits="userSpaceOnUse" x1="16.987112" y1="53.4101562" x2="16.987112" y2="1.3033611">
					<stop offset="0.0032366" style="stop-color:#00C2FF"/>
					<stop offset="1" style="stop-color:#0096CC"/>
				</linearGradient>
				<path class="st4" d="M20.6864204,20.113781l-3.8372192,0.013916v5.6430664l-3.5506601,0.3908691      c-0.0214233-0.0012207-0.0048828,12.4492188-0.0006714,16.0268555c2.1564941,1.6992188,4.6604624,2.9760742,7.3885508,3.703125      V20.113781z"/>
				<linearGradient id="SVGID_6_" gradientUnits="userSpaceOnUse" x1="29.0206795" y1="54.979435" x2="29.0206795" y2="-3.2452509">
					<stop offset="0.0032366" style="stop-color:#00C2FF"/>
					<stop offset="1" style="stop-color:#0096CC"/>
				</linearGradient>
				<path class="st5" d="M34.9591866,20.0615349l-6.3997211-2.2878227l-5.5281963,4.1674423v24.4143257      c0.9476929,0.1357422,1.9113159,0.2226562,2.8969116,0.2226562c3.2613525,0,6.3330078-0.7836914,9.0685425-2.1420898      l0.0133667-8.3266602C35.0100899,24.5031853,34.9658394,20.0620232,34.9591866,20.0615349z"/>
			</g>
			<g>
				<path class="st15" d="M29.4896736,24.9691334c-2.7624874-0.8522129-3.8894844-1.7293644-3.8894844-3.0279789      c0-2.389431,2.1889668-2.7463531,3.4939365-2.7463531c2.4305019,0,3.539896,1.3792877,3.5838985,1.4350281      c0.2038879,0.2767372,0.5031166,0.4576435,0.8424377,0.5089817c0.3393211,0.0503597,0.6766891-0.0327587,0.9529381-0.2361565      s0.456665-0.5021381,0.5084915-0.8409691c0.0513382-0.3393211-0.0322685-0.678154-0.2356644-0.9544029      c-0.0556831-0.075304-1.2952499-1.7225952-3.8753815-2.2879162c-0.3356552-0.0735435-0.5724697-0.3764381-0.5724697-0.7200546      l0.0000019-0.9699821c0-0.6717758-0.4822407-1.2850208-1.1505756-1.3529406      c-0.7683201-0.0780792-1.4182949,0.5250044-1.4182949,1.2776146v1.071784c0,0.3374043-0.2274551,0.6373863-0.5556259,0.7157898      c-2.5729733,0.6147175-4.142561,2.5194054-4.142561,5.099577c0,3.7266693,4.0249214,4.9656334,5.7484188,5.4956398      c3.6479492,0.9749374,3.6479492,2.4583702,3.6479492,2.9458389c0,2.389431-2.1889648,2.7463531-3.4939327,2.7463531      c-2.4349022,0-3.5467415-1.3885784-3.5912342-1.4457836c-0.4209747-0.5608101-1.2238083-0.6791325-1.7880402-0.2620697      c-0.2762489,0.2033978-0.456665,0.5021381-0.5084934,0.840971c-0.0513382,0.3393211,0.0322704,0.678154,0.2356682,0.9544029      c0.0556793,0.0753021,1.2952728,1.7222061,3.8754635,2.2878494c0.3356152,0.0735741,0.5723839,0.3764496,0.5723839,0.7200356      v0.9700661c-0.0000019,0.6717758,0.4822388,1.2850227,1.1505737,1.3529396      c0.768322,0.078083,1.4182987-0.5250015,1.4182987-1.2776108v-1.0718765c0-0.3373642,0.2273979-0.6373291,0.555521-0.7157669      c2.5730324-0.6150856,4.1426659-2.5197601,4.1426659-5.0995102      C34.996563,28.5838375,34.0401993,26.1841393,29.4896736,24.9691334z"/>
				<path class="st15" d="M19.4972916,24.9725571h-5.0203934c-0.6556635,0-1.1890926,0.5334282-1.1890926,1.1890926      c0,0.6556625,0.5334291,1.1890926,1.1890926,1.1890926h5.0203934c0.6556644,0,1.1890926-0.5334301,1.1890926-1.1890926      C20.6863842,25.5059853,20.152956,24.9725571,19.4972916,24.9725571z"/>
				<path class="st15" d="M19.4972916,18.9386005h-1.4589844c-0.6556644,0-1.1890926,0.5334282-1.1890926,1.1890907      s0.5334282,1.1890926,1.1890926,1.1890926h1.4589844c0.6556644,0,1.1890926-0.5334301,1.1890926-1.1890926      S20.152956,18.9386005,19.4972916,18.9386005z"/>
				<path class="st15" d="M19.4972916,31.0070038h-1.4589844c-0.6556644,0-1.1890926,0.5334301-1.1890926,1.1890945      c0,0.6556587,0.5334282,1.1890907,1.1890926,1.1890907h1.4589844c0.6556644,0,1.1890926-0.533432,1.1890926-1.1890907      C20.6863842,31.5404339,20.152956,31.0070038,19.4972916,31.0070038z"/>
			</g>
		</g>
	</g>
	<g>
		
			<linearGradient id="SVGID_7_" gradientUnits="userSpaceOnUse" x1="322.4256592" y1="68.9551239" x2="344.1605835" y2="50.1598053" gradientTransform="matrix(1 0 0 1 -310.7999878 0)">
			<stop offset="0" style="stop-color:#0090CF"/>
			<stop offset="0.8913252" style="stop-color:#0071A1"/>
		</linearGradient>
		<path class="st6" d="M25.6677456,46.7598991v12.3390694c0,0.7977715,1.9404068,1.444622,4.3340359,1.444622    c2.3935814,0,4.3339882-0.6468506,4.3339882-1.444622V46.7598991H25.6677456z"/>
		
			<linearGradient id="SVGID_8_" gradientUnits="userSpaceOnUse" x1="340.8017578" y1="46.2772293" x2="340.8017578" y2="61.5096855" gradientTransform="matrix(1 0 0 1 -310.7999878 0)">
			<stop offset="0" style="stop-color:#0090CF"/>
			<stop offset="0.8913252" style="stop-color:#0071A1"/>
		</linearGradient>
		<path class="st7" d="M34.3357697,59.0989685c0,0.7977715-1.9404068,1.444622-4.3339882,1.444622    c-2.3936291,0-4.3340359-0.6468506-4.3340359-1.444622c0-0.7979164,1.9404068-1.444767,4.3340359-1.444767    C32.3953629,57.6542015,34.3357697,58.3010521,34.3357697,59.0989685z"/>
		<g>
			<linearGradient id="SVGID_9_" gradientUnits="userSpaceOnUse" x1="19.1509323" y1="59.5338593" x2="31.9555836" y2="46.7292099">
				<stop offset="0" style="stop-color:#0090CF"/>
				<stop offset="0.8913252" style="stop-color:#0071A1"/>
			</linearGradient>
			<path class="st8" d="M25.6678181,52.0156975c0.064455,0.0004311,0.1267509,0.0096397,0.191349,0.0096397     c2.9722614,0,5.8163528-0.5226898,8.476675-1.4404526V46.781044h-8.6680241V52.0156975z"/>
		</g>
		<g>
			
				<linearGradient id="SVGID_10_" gradientUnits="userSpaceOnUse" x1="328.3929443" y1="70.7077942" x2="358.4414673" y2="44.7232361" gradientTransform="matrix(1 0 0 1 -310.7999878 0)">
				<stop offset="0" style="stop-color:#0090CF"/>
				<stop offset="0.8913252" style="stop-color:#0071A1"/>
			</linearGradient>
			<path class="st9" d="M38.6699982,38.1128731v20.9714203c0,0.7977715,1.9404068,1.444622,4.334034,1.444622     c2.3935852,0,4.333992-0.6468506,4.333992-1.444622V38.1128731H38.6699982z"/>
			
				<linearGradient id="SVGID_11_" gradientUnits="userSpaceOnUse" x1="24.5702686" y1="55.9031296" x2="44.3593559" y2="38.7904625">
				<stop offset="0" style="stop-color:#0090CF"/>
				<stop offset="0.8913252" style="stop-color:#0071A1"/>
			</linearGradient>
			<path class="st10" d="M38.6698532,48.6365662c3.4597015-1.9631386,6.4299469-4.6849174,8.6683121-7.9549942v-2.5686989     h-8.6683121V48.6365662z"/>
			
				<linearGradient id="SVGID_12_" gradientUnits="userSpaceOnUse" x1="353.8040161" y1="46.2625542" x2="353.8040161" y2="61.4950104" gradientTransform="matrix(1 0 0 1 -310.7999878 0)">
				<stop offset="0" style="stop-color:#0090CF"/>
				<stop offset="0.8913252" style="stop-color:#0071A1"/>
			</linearGradient>
			<path class="st11" d="M47.3380241,59.0842934c0,0.7977715-1.9404068,1.444622-4.333992,1.444622     c-2.3936272,0-4.334034-0.6468506-4.334034-1.444622c0-0.7979164,1.9404068-1.444767,4.334034-1.444767     C45.3976173,57.6395264,47.3380241,58.286377,47.3380241,59.0842934z"/>
			
				<linearGradient id="SVGID_13_" gradientUnits="userSpaceOnUse" x1="351.8056641" y1="29.553772" x2="354.2937317" y2="40.2684898" gradientTransform="matrix(1 0 0 1 -310.7999878 0)">
				<stop offset="0" style="stop-color:#0090CF"/>
				<stop offset="0.8913252" style="stop-color:#0071A1"/>
			</linearGradient>
			<path class="st12" d="M47.3380241,38.1594887c0,0.7979164-1.9404068,1.444767-4.333992,1.444767     c-2.3936272,0-4.334034-0.6468506-4.334034-1.444767c0-0.7977715,1.9404068-1.444622,4.334034-1.444622     C45.3976173,36.7148666,47.3380241,37.3617172,47.3380241,38.1594887z"/>
		</g>
		<g>
			
				<linearGradient id="SVGID_14_" gradientUnits="userSpaceOnUse" x1="334.3308716" y1="72.4825897" x2="372.7277222" y2="39.2788239" gradientTransform="matrix(1 0 0 1 -310.7999878 0)">
				<stop offset="0" style="stop-color:#0090CF"/>
				<stop offset="0.8913252" style="stop-color:#0071A1"/>
			</linearGradient>
			<path class="st13" d="M51.6721802,29.444706v29.6395874c0,0.7977715,1.9404068,1.444622,4.3340111,1.444622     c2.3937492,0,4.334156-0.6468506,4.334156-1.444622V29.444706H51.6721802z"/>
			
				<linearGradient id="SVGID_15_" gradientUnits="userSpaceOnUse" x1="366.8062744" y1="46.2625542" x2="366.8062744" y2="61.4950104" gradientTransform="matrix(1 0 0 1 -310.7999878 0)">
				<stop offset="0" style="stop-color:#0090CF"/>
				<stop offset="0.8913252" style="stop-color:#0071A1"/>
			</linearGradient>
			<path class="st14" d="M60.3403473,59.0842934c0,0.7977715-1.9405289,1.444622-4.334156,1.444622     c-2.3936043,0-4.3340111-0.6468506-4.3340111-1.444622c0-0.7979164,1.9404068-1.444767,4.3340111-1.444767     C58.3998184,57.6395264,60.3403473,58.286377,60.3403473,59.0842934z"/>
			
				<linearGradient id="SVGID_16_" gradientUnits="userSpaceOnUse" x1="364.8079224" y1="20.8855591" x2="367.29599" y2="31.6003189" gradientTransform="matrix(1 0 0 1 -310.7999878 0)">
				<stop offset="0" style="stop-color:#0090CF"/>
				<stop offset="0.8913252" style="stop-color:#0071A1"/>
			</linearGradient>
			<path class="st16" d="M60.3403473,29.4913197c0,0.7979164-1.9405289,1.444767-4.334156,1.444767     c-2.3936043,0-4.3340111-0.6468506-4.3340111-1.444767c0-0.7977715,1.9404068-1.444622,4.3340111-1.444622     C58.3998184,28.0466976,60.3403473,28.6935482,60.3403473,29.4913197z"/>
		</g>
		
			<linearGradient id="SVGID_17_" gradientUnits="userSpaceOnUse" x1="338.8034058" y1="38.2007942" x2="341.2914734" y2="48.9155159" gradientTransform="matrix(1 0 0 1 -310.7999878 0)">
			<stop offset="0" style="stop-color:#0090CF"/>
			<stop offset="0.8913252" style="stop-color:#0071A1"/>
		</linearGradient>
		<path class="st17" d="M34.3357697,46.8065147c0,0.7979164-1.9404068,1.444767-4.3339882,1.444767    c-2.3936291,0-4.3340359-0.6468506-4.3340359-1.444767c0-0.7977753,1.9404068-1.444622,4.3340359-1.444622    C32.3953629,45.3618927,34.3357697,46.0087395,34.3357697,46.8065147z"/>
	</g>
</g>
</svg>