<?xml version="1.0" encoding="UTF-8"?>
<!-- Generator: Adobe Illustrator 24.1.2, SVG Export Plug-In . SVG Version: 6.00 Build 0)  -->
<svg version="1.1" id="Livello_1" xmlns="http://www.w3.org/2000/svg" xmlns:xlink="http://www.w3.org/1999/xlink" x="0px" y="0px" width="56.6024017px" height="53.1048737px" viewBox="0 0 56.6024017 53.1048737" style="enable-background:new 0 0 56.6024017 53.1048737;" xml:space="preserve">
<style type="text/css">
	.st0{fill:url(#SVGID_1_);}
	.st1{fill:url(#SVGID_2_);}
	.st2{fill:url(#SVGID_3_);}
	.st3{fill:url(#SVGID_4_);}
	.st4{fill:url(#SVGID_5_);}
	.st5{fill:url(#SVGID_6_);}
	.st6{fill:url(#SVGID_7_);}
	.st7{fill:url(#SVGID_8_);}
	.st8{fill:url(#SVGID_9_);}
	.st9{fill:url(#SVGID_10_);}
	.st10{fill:url(#SVGID_11_);}
	.st11{fill:url(#SVGID_12_);}
	.st12{fill:url(#SVGID_13_);}
	.st13{fill:url(#SVGID_14_);}
	.st14{fill:url(#SVGID_15_);}
	.st15{fill:#FFFFFF;}
	.st16{fill:url(#SVGID_16_);}
	.st17{fill:url(#SVGID_17_);}
	.st18{fill:url(#SVGID_18_);}
	.st19{fill:url(#SVGID_19_);}
	.st20{fill:url(#SVGID_20_);}
	.st21{fill:url(#SVGID_21_);}
	.st22{fill:url(#SVGID_22_);}
	.st23{fill:url(#SVGID_23_);}
	.st24{fill:url(#SVGID_24_);}
	.st25{fill:url(#SVGID_25_);}
	.st26{fill:url(#SVGID_26_);}
	.st27{fill:url(#SVGID_27_);}
	.st28{fill:url(#SVGID_28_);}
	.st29{fill:url(#SVGID_29_);}
	.st30{fill:url(#SVGID_30_);}
	.st31{fill:url(#SVGID_31_);}
	.st32{fill:url(#SVGID_32_);}
	.st33{fill:url(#SVGID_33_);}
	.st34{fill:url(#SVGID_34_);}
	.st35{fill:url(#SVGID_35_);}
	.st36{fill:url(#SVGID_36_);}
	.st37{fill:url(#SVGID_37_);}
	.st38{fill:url(#SVGID_38_);}
	.st39{fill:url(#SVGID_39_);}
	.st40{fill:url(#SVGID_40_);}
	.st41{fill:url(#SVGID_41_);}
	.st42{fill:url(#SVGID_42_);}
	.st43{fill:url(#SVGID_43_);}
	.st44{fill:url(#SVGID_44_);}
	.st45{fill:url(#SVGID_45_);}
	.st46{fill:url(#SVGID_46_);}
	.st47{fill:url(#SVGID_47_);}
	.st48{fill:url(#SVGID_48_);}
	.st49{fill:url(#SVGID_49_);}
	.st50{fill:url(#SVGID_50_);}
	.st51{fill:url(#SVGID_51_);}
	.st52{fill:url(#SVGID_52_);}
	.st53{fill:url(#SVGID_53_);}
	.st54{fill:url(#SVGID_54_);}
	.st55{fill:url(#SVGID_55_);}
	.st56{fill:url(#SVGID_56_);}
	.st57{fill:url(#SVGID_57_);}
	.st58{fill:url(#SVGID_58_);}
	.st59{fill:url(#SVGID_59_);}
	.st60{fill:url(#SVGID_60_);}
	.st61{fill:url(#SVGID_61_);}
	.st62{fill:url(#SVGID_62_);}
	.st63{fill:url(#SVGID_63_);}
	.st64{fill:url(#SVGID_64_);}
	.st65{fill:url(#SVGID_65_);}
	.st66{fill:url(#SVGID_66_);}
	.st67{fill:url(#SVGID_67_);}
	.st68{fill:url(#SVGID_68_);}
	.st69{fill:#006592;}
	.st70{fill:url(#SVGID_69_);}
	.st71{fill:url(#SVGID_70_);}
	.st72{fill:url(#SVGID_71_);}
	.st73{fill:url(#SVGID_72_);}
	.st74{fill:url(#SVGID_73_);}
	.st75{fill:url(#SVGID_74_);}
	.st76{fill:url(#SVGID_75_);}
	.st77{fill:url(#SVGID_76_);}
	.st78{fill:url(#SVGID_77_);}
	.st79{fill:url(#SVGID_78_);}
	.st80{fill:url(#SVGID_79_);}
	.st81{fill:url(#SVGID_80_);}
	.st82{fill:url(#SVGID_81_);}
	.st83{fill:url(#SVGID_82_);}
	.st84{fill:url(#SVGID_83_);}
	.st85{fill:url(#SVGID_84_);}
	.st86{fill:url(#SVGID_85_);}
	.st87{fill:url(#SVGID_86_);}
	.st88{fill:url(#SVGID_87_);}
	.st89{fill:url(#SVGID_88_);}
	.st90{fill:url(#SVGID_89_);}
	.st91{fill:url(#SVGID_90_);}
	.st92{fill:url(#SVGID_91_);}
	.st93{fill:url(#SVGID_92_);}
	.st94{fill:url(#SVGID_93_);}
	.st95{fill:url(#SVGID_94_);}
	.st96{fill:url(#SVGID_95_);}
	.st97{fill:url(#SVGID_96_);}
	.st98{fill:url(#SVGID_97_);}
	.st99{fill:url(#SVGID_98_);}
	.st100{fill:url(#SVGID_99_);}
	.st101{fill:url(#SVGID_100_);}
	.st102{fill:url(#SVGID_101_);}
	.st103{fill:url(#SVGID_102_);}
	.st104{fill:url(#SVGID_103_);}
	.st105{fill:url(#SVGID_104_);}
	.st106{fill:url(#SVGID_105_);}
	.st107{fill:url(#SVGID_106_);}
	.st108{fill:url(#SVGID_107_);}
	.st109{fill:url(#SVGID_108_);}
	.st110{fill:url(#SVGID_109_);}
	.st111{fill:url(#SVGID_110_);}
	.st112{fill:url(#SVGID_111_);}
	.st113{fill:url(#SVGID_112_);}
	.st114{fill:url(#SVGID_113_);}
	.st115{fill:url(#SVGID_114_);}
	.st116{fill:url(#SVGID_115_);}
	.st117{fill:url(#SVGID_116_);}
	.st118{fill:url(#SVGID_117_);}
	.st119{fill:url(#SVGID_118_);}
	.st120{fill:url(#SVGID_119_);}
	.st121{fill:url(#SVGID_120_);}
	.st122{fill:url(#SVGID_121_);}
	.st123{fill:url(#SVGID_122_);}
	.st124{fill:url(#SVGID_123_);}
	.st125{fill:url(#SVGID_124_);}
	.st126{fill:url(#SVGID_125_);}
	.st127{fill:url(#SVGID_126_);}
	.st128{fill:url(#SVGID_127_);}
	.st129{fill:url(#SVGID_128_);}
	.st130{fill:url(#SVGID_129_);}
	.st131{fill:url(#SVGID_130_);}
	.st132{fill:url(#SVGID_131_);}
	.st133{fill:url(#SVGID_132_);}
	.st134{fill:url(#SVGID_133_);}
	.st135{fill:url(#SVGID_134_);}
	.st136{fill:url(#SVGID_135_);}
	.st137{fill:url(#SVGID_136_);}
	.st138{fill:url(#SVGID_137_);}
	.st139{fill:url(#SVGID_138_);}
	.st140{fill:url(#SVGID_139_);}
	.st141{fill:url(#SVGID_140_);}
</style>
<g>
	<g>
		
			<linearGradient id="SVGID_1_" gradientUnits="userSpaceOnUse" x1="-7.5201941" y1="18.5691338" x2="38.183918" y2="64.2732468" gradientTransform="matrix(1 0 0 -1 0 80.7297287)">
			<stop offset="0" style="stop-color:#0090CF"/>
			<stop offset="0.8456634" style="stop-color:#0071A1"/>
		</linearGradient>
		<path class="st0" d="M56.1177673,36.8591805c-0.5774765-0.9391975-1.5294762-1.3943024-2.6321449-1.9209785l-0.667778-0.3227654    c-0.0724945-0.0359879-7.5661201-3.7248421-9.0560989-4.2617588c-1.0429764-0.3726349-3.4869919-1.2422905-5.2706413,1.418026    l-3.024456,3.6982937c-0.5423012,0.6631927-1.4608765,0.8824577-2.2442856,0.5358353l0,0    c-1.7866096-0.7675018-5.1132145-2.1957703-9.0121765-5.6413708c-2.7064037-2.38377-4.7688866-5.2075577-5.9669724-7.049696    c-0.4653511-0.7154827-0.3945904-1.6482067,0.1681919-2.2899723c0.2421761-0.2762737,0.4785595-0.554163,0.6751842-0.7918949    c0.2127991-0.2571354,0.4249229-0.5137329,0.6243782-0.7447262c0.7224998-0.8296299,1.0502453-1.4940338,1.3967342-2.1968479    l0.1776237-0.356863c0.6475563-1.2856836,0.6091499-2.65627-0.1095657-4.0628386    c-0.2136097-0.4328728-1.6666718-3.9395266-2.6286449-6.2596865c-0.5009308-1.2087317-0.9683056-2.3364668-1.2970047-3.1217575    c-1.0127773-2.4035807-3.375926-3.5703986-7.0390444-3.485899L9.9943666,0.0085925    c-1.4658737,0-3.3956132,0.8524044-4.8051472,2.1232634C0.9002482,6.0122194,0,10.8983536,0,14.3141756    c0,6.5292196,4.3634982,12.7277231,5.6886678,14.4566565l0.1381373,0.1900234    C8.9856224,33.34552,17.5966072,44.0532112,29.2976627,48.771965c8.2709599,3.3299713,12.4908047,4.3329086,15.2883053,4.3329086    c1.4825821,0,2.565979-0.2817955,3.6403427-0.6479568c2.8872643-0.9877129,6.1013374-4.3966637,7.3174782-7.7616692    l0.0014839-0.003376C56.5278625,41.9570351,57.0426788,38.3936424,56.1177673,36.8591805z"/>
		<g>
			
				<linearGradient id="SVGID_2_" gradientUnits="userSpaceOnUse" x1="41.3708267" y1="47.2898369" x2="41.3708267" y2="135.6345673" gradientTransform="matrix(1 0 0 -1 0 80.7297287)">
				<stop offset="0.0032366" style="stop-color:#00C2FF"/>
				<stop offset="1" style="stop-color:#0096CC"/>
			</linearGradient>
			<path class="st1" d="M53.8106804,4.3157654H28.9309597c-1.5417404,0-2.7917099,1.2498345-2.7917099,2.7917109v12.1867666     c0,1.5417404,1.2499695,2.7917099,2.7917099,2.7917099l0,0c0.5613079,0,1.0162811,0.454977,1.0162811,1.0161495v1.8641052     c0,0.3738461,0.4323387,0.5816574,0.7242451,0.3481064l3.0359077-2.428648     c0.6471558-0.5177784,1.4511795-0.7997131,2.2798653-0.7997131h17.8234215c1.5418777,0,2.7917213-1.2499695,2.7917213-2.7917099     V7.1074762C56.6024017,5.5655999,55.3525581,4.3157654,53.8106804,4.3157654z"/>
			<g>
				
					<linearGradient id="SVGID_3_" gradientUnits="userSpaceOnUse" x1="-1433.4207764" y1="66.9076157" x2="-1433.4207764" y2="84.2308121" gradientTransform="matrix(-1 0 0 -1 -1385.7034912 80.7297287)">
					<stop offset="0" style="stop-color:#FFFFFF"/>
					<stop offset="0.516006" style="stop-color:#CCE2E6"/>
					<stop offset="1" style="stop-color:#8FA1BB"/>
				</linearGradient>
				<path class="st2" d="M46.4480553,13.2008591c0,0.7009258,0.568325,1.2692423,1.2692413,1.2692423      c0.7010651,0,1.2693863-0.5683165,1.2693863-1.2692423c0-0.7010612-0.5683212-1.2693748-1.2693863-1.2693748      C47.0163803,11.9314842,46.4480553,12.4997978,46.4480553,13.2008591z"/>
				
					<linearGradient id="SVGID_4_" gradientUnits="userSpaceOnUse" x1="-1427.0743408" y1="66.9076157" x2="-1427.0743408" y2="84.2308121" gradientTransform="matrix(-1 0 0 -1 -1385.7034912 80.7297287)">
					<stop offset="0" style="stop-color:#FFFFFF"/>
					<stop offset="0.516006" style="stop-color:#CCE2E6"/>
					<stop offset="1" style="stop-color:#8FA1BB"/>
				</linearGradient>
				<path class="st3" d="M40.1015778,13.2008591c0,0.7009258,0.5683174,1.2692423,1.2692413,1.2692423      c0.7010651,0,1.2693748-0.5683165,1.2693748-1.2692423c0-0.7010612-0.5683098-1.2693748-1.2693748-1.2693748      C40.6698952,11.9314842,40.1015778,12.4997978,40.1015778,13.2008591z"/>
				
					<linearGradient id="SVGID_5_" gradientUnits="userSpaceOnUse" x1="-1420.7279053" y1="66.9076157" x2="-1420.7279053" y2="84.2308121" gradientTransform="matrix(-1 0 0 -1 -1385.7034912 80.7297287)">
					<stop offset="0" style="stop-color:#FFFFFF"/>
					<stop offset="0.516006" style="stop-color:#CCE2E6"/>
					<stop offset="1" style="stop-color:#8FA1BB"/>
				</linearGradient>
				<path class="st4" d="M33.7551003,13.2008591c0,0.7009258,0.5683174,1.2692423,1.2692413,1.2692423      c0.7010651,0,1.2693748-0.5683165,1.2693748-1.2692423c0-0.7010612-0.5683098-1.2693748-1.2693748-1.2693748      C34.3234177,11.9314842,33.7551003,12.4997978,33.7551003,13.2008591z"/>
			</g>
		</g>
	</g>
</g>
</svg>