<?xml version="1.0" encoding="UTF-8"?>
<!-- Generator: Adobe Illustrator 24.1.2, SVG Export Plug-In . SVG Version: 6.00 Build 0)  -->
<svg version="1.1" id="Livello_1" xmlns="http://www.w3.org/2000/svg" xmlns:xlink="http://www.w3.org/1999/xlink" x="0px" y="0px" width="65.6073532px" height="53.9754829px" viewBox="0 0 65.6073532 53.9754829" style="enable-background:new 0 0 65.6073532 53.9754829;" xml:space="preserve">
<style type="text/css">
	.st0{fill:url(#SVGID_1_);}
	.st1{fill:url(#SVGID_2_);}
	.st2{fill:url(#SVGID_3_);}
	.st3{fill:url(#SVGID_4_);}
	.st4{fill:url(#SVGID_5_);}
	.st5{fill:url(#SVGID_6_);}
	.st6{fill:url(#SVGID_7_);}
	.st7{fill:url(#SVGID_8_);}
	.st8{fill:url(#SVGID_9_);}
	.st9{fill:url(#SVGID_10_);}
	.st10{fill:url(#SVGID_11_);}
	.st11{fill:url(#SVGID_12_);}
	.st12{fill:url(#SVGID_13_);}
	.st13{fill:url(#SVGID_14_);}
	.st14{fill:url(#SVGID_15_);}
	.st15{fill:#FFFFFF;}
	.st16{fill:url(#SVGID_16_);}
	.st17{fill:url(#SVGID_17_);}
	.st18{fill:url(#SVGID_18_);}
	.st19{fill:url(#SVGID_19_);}
	.st20{fill:url(#SVGID_20_);}
	.st21{fill:url(#SVGID_21_);}
	.st22{fill:url(#SVGID_22_);}
	.st23{fill:url(#SVGID_23_);}
	.st24{fill:url(#SVGID_24_);}
	.st25{fill:url(#SVGID_25_);}
	.st26{fill:url(#SVGID_26_);}
	.st27{fill:url(#SVGID_27_);}
	.st28{fill:url(#SVGID_28_);}
	.st29{fill:url(#SVGID_29_);}
	.st30{fill:url(#SVGID_30_);}
	.st31{fill:url(#SVGID_31_);}
	.st32{fill:url(#SVGID_32_);}
	.st33{fill:url(#SVGID_33_);}
	.st34{fill:url(#SVGID_34_);}
	.st35{fill:url(#SVGID_35_);}
	.st36{fill:url(#SVGID_36_);}
	.st37{fill:url(#SVGID_37_);}
	.st38{fill:url(#SVGID_38_);}
	.st39{fill:url(#SVGID_39_);}
	.st40{fill:url(#SVGID_40_);}
	.st41{fill:url(#SVGID_41_);}
	.st42{fill:url(#SVGID_42_);}
	.st43{fill:url(#SVGID_43_);}
	.st44{fill:url(#SVGID_44_);}
	.st45{fill:url(#SVGID_45_);}
	.st46{fill:url(#SVGID_46_);}
	.st47{fill:url(#SVGID_47_);}
	.st48{fill:url(#SVGID_48_);}
	.st49{fill:url(#SVGID_49_);}
	.st50{fill:url(#SVGID_50_);}
	.st51{fill:url(#SVGID_51_);}
	.st52{fill:url(#SVGID_52_);}
	.st53{fill:url(#SVGID_53_);}
	.st54{fill:url(#SVGID_54_);}
	.st55{fill:url(#SVGID_55_);}
	.st56{fill:url(#SVGID_56_);}
	.st57{fill:url(#SVGID_57_);}
	.st58{fill:url(#SVGID_58_);}
	.st59{fill:url(#SVGID_59_);}
	.st60{fill:url(#SVGID_60_);}
	.st61{fill:url(#SVGID_61_);}
	.st62{fill:url(#SVGID_62_);}
	.st63{fill:url(#SVGID_63_);}
	.st64{fill:url(#SVGID_64_);}
	.st65{fill:url(#SVGID_65_);}
	.st66{fill:url(#SVGID_66_);}
	.st67{fill:url(#SVGID_67_);}
	.st68{fill:url(#SVGID_68_);}
	.st69{fill:#006592;}
	.st70{fill:url(#SVGID_69_);}
	.st71{fill:url(#SVGID_70_);}
	.st72{fill:url(#SVGID_71_);}
	.st73{fill:url(#SVGID_72_);}
	.st74{fill:url(#SVGID_73_);}
	.st75{fill:url(#SVGID_74_);}
	.st76{fill:url(#SVGID_75_);}
	.st77{fill:url(#SVGID_76_);}
	.st78{fill:url(#SVGID_77_);}
	.st79{fill:url(#SVGID_78_);}
	.st80{fill:url(#SVGID_79_);}
	.st81{fill:url(#SVGID_80_);}
	.st82{fill:url(#SVGID_81_);}
	.st83{fill:url(#SVGID_82_);}
	.st84{fill:url(#SVGID_83_);}
	.st85{fill:url(#SVGID_84_);}
	.st86{fill:url(#SVGID_85_);}
	.st87{fill:url(#SVGID_86_);}
	.st88{fill:url(#SVGID_87_);}
	.st89{fill:url(#SVGID_88_);}
	.st90{fill:url(#SVGID_89_);}
	.st91{fill:url(#SVGID_90_);}
	.st92{fill:url(#SVGID_91_);}
	.st93{fill:url(#SVGID_92_);}
	.st94{fill:url(#SVGID_93_);}
	.st95{fill:url(#SVGID_94_);}
	.st96{fill:url(#SVGID_95_);}
	.st97{fill:url(#SVGID_96_);}
	.st98{fill:url(#SVGID_97_);}
	.st99{fill:url(#SVGID_98_);}
	.st100{fill:url(#SVGID_99_);}
	.st101{fill:url(#SVGID_100_);}
	.st102{fill:url(#SVGID_101_);}
	.st103{fill:url(#SVGID_102_);}
	.st104{fill:url(#SVGID_103_);}
	.st105{fill:url(#SVGID_104_);}
	.st106{fill:url(#SVGID_105_);}
	.st107{fill:url(#SVGID_106_);}
	.st108{fill:url(#SVGID_107_);}
	.st109{fill:url(#SVGID_108_);}
	.st110{fill:url(#SVGID_109_);}
	.st111{fill:url(#SVGID_110_);}
	.st112{fill:url(#SVGID_111_);}
	.st113{fill:url(#SVGID_112_);}
	.st114{fill:url(#SVGID_113_);}
	.st115{fill:url(#SVGID_114_);}
	.st116{fill:url(#SVGID_115_);}
	.st117{fill:url(#SVGID_116_);}
	.st118{fill:url(#SVGID_117_);}
	.st119{fill:url(#SVGID_118_);}
	.st120{fill:url(#SVGID_119_);}
	.st121{fill:url(#SVGID_120_);}
	.st122{fill:url(#SVGID_121_);}
	.st123{fill:url(#SVGID_122_);}
	.st124{fill:url(#SVGID_123_);}
	.st125{fill:url(#SVGID_124_);}
	.st126{fill:url(#SVGID_125_);}
	.st127{fill:url(#SVGID_126_);}
	.st128{fill:url(#SVGID_127_);}
	.st129{fill:url(#SVGID_128_);}
	.st130{fill:url(#SVGID_129_);}
	.st131{fill:url(#SVGID_130_);}
	.st132{fill:url(#SVGID_131_);}
	.st133{fill:url(#SVGID_132_);}
	.st134{fill:url(#SVGID_133_);}
	.st135{fill:url(#SVGID_134_);}
	.st136{fill:url(#SVGID_135_);}
	.st137{fill:url(#SVGID_136_);}
	.st138{fill:url(#SVGID_137_);}
	.st139{fill:url(#SVGID_138_);}
	.st140{fill:url(#SVGID_139_);}
	.st141{fill:url(#SVGID_140_);}
</style>
<g>
	<path class="st69" d="M31.6563148,43.9334946c-1.243103,0-2.3649883,0.5047073-3.2191334,1.311367   c-0.8541451-0.8066597-1.9761868-1.311367-3.2192898-1.311367c-2.0519485,0-3.7916374,1.3446388-4.4847317,3.230381   l-0.2558556,0.5282974c-0.1774654,0.3661499-0.4306793,0.6738815-0.7131023,0.9527092v1.3137093h0.7365341   c0.4461155,2.291729,2.3880939,4.0167351,4.7171555,4.0167351h6.4384232c2.6589737,0,4.8143311-2.2479897,4.8143311-5.0208397   C36.4706459,46.1813278,34.3152885,43.9334946,31.6563148,43.9334946z"/>
	<linearGradient id="SVGID_1_" gradientUnits="userSpaceOnUse" x1="16.5514336" y1="60.7359772" x2="18.5180073" y2="49.1039581">
		<stop offset="0" style="stop-color:#2287C1"/>
		<stop offset="0.7473724" style="stop-color:#096E9E"/>
		<stop offset="1" style="stop-color:#006592"/>
	</linearGradient>
	<path class="st0" d="M19.168581,43.9334946c-2.6588154,0-4.8143301,2.2479897-4.8143301,5.0209923   c0,0.6238976,0.1227798,1.2148323,0.322257,1.765934h-1.9465075v3.2550621h6.4385805   c2.6589718,0,4.8143291-2.2479897,4.8143291-5.0209961C23.9829102,46.1814842,21.8275528,43.9334946,19.168581,43.9334946z"/>
	<linearGradient id="SVGID_2_" gradientUnits="userSpaceOnUse" x1="28.1109924" y1="24.3910294" x2="2.336627" y2="-5.1583266">
		<stop offset="0.0032366" style="stop-color:#00C2FF"/>
		<stop offset="1" style="stop-color:#0096CC"/>
	</linearGradient>
	<path class="st1" d="M46.883625,49.95047H18.1290169c-2.2597046,0-4.0915556-1.831852-4.0915556-4.0915565V3.1643052   C14.0374613,1.4166502,15.4541111,0,17.201767,0h18.8413353C42.0302429,0,46.883625,4.8533821,46.883625,10.8405218V49.95047z"/>
	<linearGradient id="SVGID_3_" gradientUnits="userSpaceOnUse" x1="14.0587187" y1="56.0416298" x2="14.0587187" y2="-11.7096891">
		<stop offset="0.0032366" style="stop-color:#00C2FF"/>
		<stop offset="1" style="stop-color:#0096CC"/>
	</linearGradient>
	<path class="st2" d="M28.1174374,49.95047H10.2041178C4.5686021,49.95047,0,45.381855,0,39.7463417V19.1321983   C0,8.5658207,8.5658083,0,19.132185,0l0,0c4.9624138,0,8.9852524,4.0228243,8.9852524,8.985239V49.95047z"/>
	<path class="st69" d="M56.4113884,43.9334946c-1.2431183,0-2.3648453,0.5047073-3.2191467,1.311367   c-0.8541451-0.8066597-1.9761887-1.311367-3.2192917-1.311367c-2.0519485,0-3.7916222,1.3446388-4.4847298,3.230381   l-0.2558708,0.5282974c-0.1774521,0.3661499-0.4306641,0.6738815-0.7130737,0.9527092v1.3137093h0.7365074   c0.4461288,2.291729,2.3881073,4.0167351,4.7171669,4.0167351h6.4384384c2.6589584,0,4.8143311-2.2479897,4.8143311-5.0208397   C61.2257195,46.1813278,59.0703468,43.9334946,56.4113884,43.9334946z"/>
	<linearGradient id="SVGID_4_" gradientUnits="userSpaceOnUse" x1="41.027916" y1="60.694725" x2="42.9944878" y2="49.0627136">
		<stop offset="0" style="stop-color:#2287C1"/>
		<stop offset="1" style="stop-color:#006592"/>
	</linearGradient>
	<path class="st3" d="M43.638092,43.9334946c-2.6589737,0-4.8144875,2.2479897-4.8144875,5.0209923   c0,0.6238976,0.1229362,1.2148323,0.3224144,1.765934h-1.9465065v3.2550621h6.4385796   c2.6588287,0,4.8143311-2.2479897,4.8143311-5.0209961C48.4524231,46.1814842,46.2969208,43.9334946,43.638092,43.9334946z"/>
	<linearGradient id="SVGID_5_" gradientUnits="userSpaceOnUse" x1="46.8623962" y1="52.0641365" x2="46.8623962" y2="3.8832669">
		<stop offset="0" style="stop-color:#0090CF"/>
		<stop offset="0.8913" style="stop-color:#0071A1"/>
	</linearGradient>
	<path class="st4" d="M55.6820412,33.89151h-0.5153313l-3.0235634-11.3386707   c-1.3813477-5.1800117-6.0919533-8.7712336-11.4528542-8.7448349c-0.2575874,0.0012503-0.5142365,0.0065613-0.7701073,0.015933   c-6.5012207,0.2372799-11.8027477,6.1008596-11.8027477,12.6066103v23.3588734   c0.6390324,0.0656052,1.2843285,0.0413933,1.9075985-0.121376l0.0412388-0.0109329   c1.0481548-0.2758636,1.9233894-0.9961395,2.3959179-1.9716568l0.2525864-0.5215797   c0.6930962-1.8857422,2.432785-3.230381,4.4847336-3.230381c1.9605637,0,3.6402702,1.2265472,4.3911629,2.9801369   l-0.0009384-0.0209312l0.3603706,0.7438622c0.5012741,1.0347214,1.444767,1.7835808,2.561657,2.056633   c0.7213821,0.1763573,1.4614792,0.2653961,2.2044067,0.2653961h12.749382c3.3920555,0,6.1417999-2.7497292,6.1417999-6.1416283l0,0   C65.6073532,38.3353119,61.1635323,33.89151,55.6820412,33.89151z"/>
	<linearGradient id="SVGID_6_" gradientUnits="userSpaceOnUse" x1="38.2849312" y1="63.5344734" x2="38.2849312" y2="32.9921646">
		<stop offset="0" style="stop-color:#0090CF"/>
		<stop offset="0.8913" style="stop-color:#0071A1"/>
	</linearGradient>
	<path class="st5" d="M43.4597015,34.2461014c-1.8708878-0.5959358-3.350502-2.0455437-4.2693176-3.780859l-4.2151184-7.9608269   c-0.0071831-0.026556-0.0143585-0.0531101-0.0215569-0.0796661c-0.5710945-2.0830326-2.1483269-3.4668808-3.9990788-4.026104   c-1.7734165,2.2058125-2.8371925,5.0184937-2.8371925,8.0317459V49.95047   c0.6387215,0.065609,1.2838593-0.1199684,1.9068165-0.2824249l0.0331173-0.0085907   c1.0520592-0.2739868,1.9308987-0.9955139,2.4048214-1.9738426l0.2525864-0.5217361   c0.6930962-1.8857422,2.432785-3.230381,4.4847336-3.230381c1.9605637,0,3.6402702,1.2265472,4.3911629,2.9801369   l-0.0009384-0.0209312l0.3453751,0.713089c0.5107994,1.0540924,1.4710121,1.8216972,2.6099243,2.0953712   c0.6449814,0.1549606,1.30513,0.2347832,1.9683762,0.2488403c1.0579948,0.0224953,1.9390106-0.8079071,1.9390106-1.8662148   v-4.2668228C48.4524231,39.2488174,47.0870094,35.4015694,43.4597015,34.2461014z"/>
	<linearGradient id="SVGID_7_" gradientUnits="userSpaceOnUse" x1="51.263237" y1="50.2530289" x2="51.263237" y2="-9.5622358">
		<stop offset="0" style="stop-color:#0090CF"/>
		<stop offset="0.8913" style="stop-color:#0071A1"/>
	</linearGradient>
	<path class="st6" d="M65.6073532,43.8169632c0-0.3922386-0.0287552-0.7774467-0.0729675-1.1576576   c-0.0137405-0.11903-0.0359268-0.235405-0.0538864-0.3530273c-0.0404587-0.2629013-0.0885696-0.5229874-0.149025-0.778698   c-0.0301437-0.1269989-0.0624847-0.252903-0.0973206-0.3780251c-0.0702896-0.2522736-0.1518326-0.4997101-0.2410278-0.7433929   c-0.0395203-0.1076279-0.0752869-0.2172852-0.1183853-0.3231926c-0.2779083-0.6832542-0.6290665-1.328083-1.0448914-1.9255791   c-0.0646706-0.0929413-0.1354332-0.1811981-0.2032127-0.2719574c-0.152317-0.2036934-0.3108559-0.4023895-0.4779968-0.5935898   c-0.083744-0.0956001-0.1691895-0.1896362-0.2565079-0.2821121c-0.174015-0.1843262-0.3563118-0.360527-0.5439148-0.531105   c-0.0840416-0.0763855-0.1652718-0.1554298-0.2518082-0.2288475c-0.2769585-0.2349358-0.5632858-0.4594078-0.8650818-0.6631012   c-0.3013229-0.2036934-0.6174889-0.3863029-0.9411507-0.5564117c-0.101223-0.053112-0.2065086-0.09935-0.309761-0.149025   c-0.2310333-0.1113739-0.4661255-0.2155647-0.7068405-0.3092918c-0.1204376-0.0467033-0.2416534-0.0910683-0.3641205-0.1332436   c-0.2447777-0.0843544-0.4948692-0.1569901-0.7477684-0.2222824c-0.1143456-0.0293694-0.2268143-0.0626411-0.3425636-0.0881042   c-0.3675575-0.0807571-0.7407265-0.1468353-1.1223564-0.1855736c-0.3336601-0.0338974-0.6721611-0.0512352-1.0147247-0.0512352   h-0.5153313l-3.0235634-11.3386707c-0.1726074-0.6466999-0.3970795-1.2685642-0.6680984-1.8618431   c-0.1209068-0.2647724-0.2838326-0.5012703-0.4230118-0.7544842c-0.1719742-0.3128834-0.3253822-0.6390457-0.5236092-0.9327183   c-0.2603989-0.3855209-0.5651627-0.7330837-0.8671112-1.0828323c-0.1138763-0.1318398-0.2079124-0.2816429-0.3272552-0.4081726   c-0.4153595-0.4398804-0.8675804-0.8418045-1.3440132-1.2121735c-0.023262-0.0181198-0.0423317-0.0410824-0.0659218-0.0590458   c-2.0124283-1.5402117-4.5203438-2.4337215-7.1918144-2.4302845c-0.461895,0.0015621-0.9164581,0.0348339-1.3721313,0.0634203   c-0.0201492,0.0017185-0.0401459,0.0035925-0.0601387,0.0054674c-0.358654,0.0318661-0.7104225,0.0849771-1.0586205,0.1477728   c-0.116375,0.0220251-0.2330627,0.0440502-0.3483467,0.0696688c-0.2119713,0.0448313-0.4198875,0.1004419-0.6274872,0.1565199   c-0.1166878,0.0329599-0.2311859,0.0712309-0.3464699,0.1076279c3.7653961,1.1723404,6.7900505,4.1790323,7.8469658,8.1426535   L47.802597,33.89151h0.5153313c5.4816628,0,9.9252968,4.4436455,9.9252968,9.9254532v4.2668228   c0,1.0355034-0.8393059,1.8748055-1.8748093,1.8748055h3.0971375   C62.8576088,49.9585915,65.6073532,47.2088623,65.6073532,43.8169632z"/>
	<linearGradient id="SVGID_8_" gradientUnits="userSpaceOnUse" x1="45.6314888" y1="35.8209457" x2="45.6314888" y2="1.5669045">
		<stop offset="0" style="stop-color:#FFFFFF"/>
		<stop offset="0.5164" style="stop-color:#E1E1E5"/>
		<stop offset="1" style="stop-color:#A0A3B3"/>
	</linearGradient>
	<path class="st7" d="M55.1667099,33.89151l-2.634449-9.8796883c-0.1833878-0.6877823-0.8063431-1.1664047-1.5181847-1.1664047   h-9.0719337c-0.3461571,0-0.6887207,0.015152-1.0270691,0.0446758C34.0416107,23.4911804,34.7347069,33.89151,41.6345673,33.89151   H55.1667099z"/>
	<linearGradient id="SVGID_9_" gradientUnits="userSpaceOnUse" x1="42.5587349" y1="50.5073547" x2="45.9665375" y2="7.4836197">
		<stop offset="0" style="stop-color:#FFFFFF"/>
		<stop offset="0.5164" style="stop-color:#E1E1E5"/>
		<stop offset="1" style="stop-color:#A0A3B3"/>
	</linearGradient>
	<path class="st8" d="M52.5322609,24.0118217c-0.137619-0.515955-0.5225143-0.9139729-1.0064468-1.0809593   c-0.1615067-0.0554523-0.3338165-0.0854454-0.5118942-0.0854454h-9.0717773c-0.4458199,0-0.885891,0.0276737-1.3184319,0.0767231   c-1.975872,0.2633667-3.2839241,1.3583603-3.9638977,2.7639198l0,0c-1.5853539,3.2675591,0.2199402,8.2054501,4.9747543,8.2054501   h1.0386276c-0.2249374-0.1073151-0.4478493-0.2352524-0.6671638-0.3802109   c-2.0442924-1.3508873-2.4787064-4.1857491-1.0595589-6.1831818l0,0c1.1495361-1.6178455,3.0113792-2.5788364,4.9959984-2.5788364   h5.9084129c0.3611526,0,0.6980934,0.1249657,0.96772,0.3363152L52.5322609,24.0118217z"/>
	<g>
		<linearGradient id="SVGID_10_" gradientUnits="userSpaceOnUse" x1="58.3662872" y1="43.4207764" x2="45.785965" y2="42.4723587">
			<stop offset="0" style="stop-color:#FFFFFF"/>
			<stop offset="0.5163966" style="stop-color:#E1E1E5"/>
			<stop offset="1" style="stop-color:#A0A3B3"/>
		</linearGradient>
		<path class="st9" d="M54.5143852,42.3618851c0.4634705,1.3832245,0.0006371,2.785347-1.0336266,3.1318169    c-1.034256,0.3464661-2.2483025-0.4940872-2.7116013-1.8771515c-0.4633293-1.3832245-0.0006409-2.785347,1.0336151-3.1318169    C52.8370247,40.1382675,54.0510864,40.9786644,54.5143852,42.3618851z"/>
		
			<linearGradient id="SVGID_11_" gradientUnits="userSpaceOnUse" x1="-78.643158" y1="-71.8279037" x2="-78.643158" y2="-85.1002121" gradientTransform="matrix(0.9482 -0.3176 0.2738 0.8172 146.2993774 73.8598862)">
			<stop offset="0" style="stop-color:#FFFFFF"/>
			<stop offset="0.5163966" style="stop-color:#E1E1E5"/>
			<stop offset="1" style="stop-color:#A0A3B3"/>
		</linearGradient>
		<path class="st10" d="M54.5904579,42.5886993c0.3795853,1.1331329,0.0004692,2.2817307-0.8468018,2.5655594    c-0.8472748,0.2838326-1.8418503-0.4047318-2.2214355-1.5377083c-0.3795853-1.1331329-0.0004692-2.2818871,0.8468056-2.5655632    C53.2162971,40.7671585,54.2108727,41.4555664,54.5904579,42.5886993z"/>
	</g>
	<g>
		<linearGradient id="SVGID_12_" gradientUnits="userSpaceOnUse" x1="67.9061203" y1="43.4207726" x2="55.3257599" y2="42.4723549">
			<stop offset="0" style="stop-color:#FFFFFF"/>
			<stop offset="0.5163966" style="stop-color:#E1E1E5"/>
			<stop offset="1" style="stop-color:#A0A3B3"/>
		</linearGradient>
		<path class="st11" d="M64.0543213,42.3618851c0.4633102,1.3832245,0.0004654,2.785347-1.0337715,3.1318169    c-1.0342674,0.3464661-2.2483177-0.4940872-2.711628-1.8771515c-0.4633141-1.3832245-0.0004692-2.785347,1.033783-3.1318169    C62.3769722,40.1382675,63.5910072,40.9786644,64.0543213,42.3618851z"/>
		
			<linearGradient id="SVGID_13_" gradientUnits="userSpaceOnUse" x1="-69.5972977" y1="-68.3122406" x2="-69.5972977" y2="-81.584404" gradientTransform="matrix(0.9482 -0.3176 0.2738 0.8172 146.2993774 73.8598862)">
			<stop offset="0" style="stop-color:#FFFFFF"/>
			<stop offset="0.5163966" style="stop-color:#E1E1E5"/>
			<stop offset="1" style="stop-color:#A0A3B3"/>
		</linearGradient>
		<path class="st12" d="M64.1302338,42.5886993c0.3795853,1.1331329,0.000473,2.2817307-0.8468018,2.5655594    c-0.847271,0.2838326-1.8416901-0.4047318-2.2212753-1.5377083c-0.3795891-1.1331329-0.0004578-2.2818871,0.8468018-2.5655632    C62.7562294,40.7671585,63.7506485,41.4555664,64.1302338,42.5886993z"/>
	</g>
	<g>
		<linearGradient id="SVGID_14_" gradientUnits="userSpaceOnUse" x1="37.1995125" y1="59.1080513" x2="37.1995125" y2="41.4268227">
			<stop offset="0" style="stop-color:#2287C1"/>
			<stop offset="1" style="stop-color:#006592"/>
		</linearGradient>
		<ellipse class="st13" cx="37.1995125" cy="48.9544868" rx="4.8143301" ry="5.0209932"/>
		<linearGradient id="SVGID_15_" gradientUnits="userSpaceOnUse" x1="37.1995888" y1="52.4499931" x2="37.1995888" y2="34.9575081">
			<stop offset="0" style="stop-color:#FFFFFF"/>
			<stop offset="0.5164" style="stop-color:#E1E1E5"/>
			<stop offset="1" style="stop-color:#A0A3B3"/>
		</linearGradient>
		<path class="st14" d="M38.9448242,48.9544868c0,1.0051994-0.781353,1.820137-1.7453117,1.820137    c-0.9638023,0-1.7451553-0.8149376-1.7451553-1.820137c0-1.0051956,0.781353-1.8201332,1.7451553-1.8201332    C38.1634712,47.1343536,38.9448242,47.9492912,38.9448242,48.9544868z"/>
		<linearGradient id="SVGID_16_" gradientUnits="userSpaceOnUse" x1="43.5566292" y1="59.1077728" x2="43.5566292" y2="41.4269753">
			<stop offset="0" style="stop-color:#2287C1"/>
			<stop offset="1" style="stop-color:#006592"/>
		</linearGradient>
		<path class="st16" d="M44.3694572,49.6571121c-1.0465927-0.2732086-1.920887-0.9912949-2.3924789-1.9649391l-0.3872414-0.7994728    l0.1262169,3.0658913h3.8075676L44.3694572,49.6571121z"/>
		
			<linearGradient id="SVGID_17_" gradientUnits="userSpaceOnUse" x1="912.1745605" y1="59.1077728" x2="912.1745605" y2="41.4269753" gradientTransform="matrix(-1 0 0 1 942.8995972 0)">
			<stop offset="0" style="stop-color:#2287C1"/>
			<stop offset="1" style="stop-color:#006592"/>
		</linearGradient>
		<path class="st17" d="M30.066431,49.6571121c1.0465927-0.2732086,1.9208889-0.9912949,2.3924809-1.9649391l0.3872414-0.7994728    l-0.1262169,3.0658913h-4.1159248L30.066431,49.6571121z"/>
	</g>
	<g>
		<linearGradient id="SVGID_18_" gradientUnits="userSpaceOnUse" x1="12.7301569" y1="59.1080513" x2="12.7301569" y2="41.4268227">
			<stop offset="0" style="stop-color:#2287C1"/>
			<stop offset="1" style="stop-color:#006592"/>
		</linearGradient>
		<ellipse class="st18" cx="12.7301569" cy="48.9544868" rx="4.8143301" ry="5.0209932"/>
		<linearGradient id="SVGID_19_" gradientUnits="userSpaceOnUse" x1="12.7300787" y1="52.2683678" x2="12.7300787" y2="34.7758827">
			<stop offset="0" style="stop-color:#FFFFFF"/>
			<stop offset="0.5164" style="stop-color:#E1E1E5"/>
			<stop offset="1" style="stop-color:#A0A3B3"/>
		</linearGradient>
		<path class="st19" d="M14.4753122,48.9544868c0,1.0051994-0.781352,1.820137-1.7451553,1.820137    c-0.9639597,0-1.7453117-0.8149376-1.7453117-1.820137c0-1.0051956,0.781352-1.8201332,1.7453117-1.8201332    C13.6939602,47.1343536,14.4753122,47.9492912,14.4753122,48.9544868z"/>
		<linearGradient id="SVGID_20_" gradientUnits="userSpaceOnUse" x1="19.0871181" y1="59.1077728" x2="19.0871181" y2="41.4269753">
			<stop offset="0" style="stop-color:#2287C1"/>
			<stop offset="1" style="stop-color:#006592"/>
		</linearGradient>
		<path class="st20" d="M19.8999462,49.6571121c-1.0465927-0.2732086-1.9208889-0.9912949-2.3924809-1.9649391l-0.3872395-0.7994728    l0.126215,3.0658913h3.8075695L19.8999462,49.6571121z"/>
		<linearGradient id="SVGID_21_" gradientUnits="userSpaceOnUse" x1="7.450171" y1="58.3167534" x2="7.450171" y2="41.7809258">
			<stop offset="0" style="stop-color:#2287C1"/>
			<stop offset="1" style="stop-color:#006592"/>
		</linearGradient>
		<path class="st21" d="M6.5237012,49.255188c0.5573502,0.2158813,1.1353197,0.3891144,1.7350144,0.5048637l0.1179247-2.8673515    L7.9894009,47.692173C7.6672997,48.3569908,7.1480775,48.8888817,6.5237012,49.255188z"/>
	</g>
	<linearGradient id="SVGID_22_" gradientUnits="userSpaceOnUse" x1="33.8293228" y1="43.6406097" x2="33.8293228" y2="33.436264">
		<stop offset="0.0032366" style="stop-color:#00C2FF"/>
		<stop offset="1" style="stop-color:#0096CC"/>
	</linearGradient>
	<path class="st22" d="M35.2664375,36.8065071h-2.8740692c-0.4583149,0-0.8299332-0.3714638-0.8299332-0.8297768v-0.0001564   c0-0.4583168,0.3716183-0.8297768,0.8299332-0.8297768h2.8740692c0.4583282,0,0.8297768,0.37146,0.8297768,0.8297768v0.0001564   C36.0962143,36.4350433,35.7247658,36.8065071,35.2664375,36.8065071z"/>
	<linearGradient id="SVGID_23_" gradientUnits="userSpaceOnUse" x1="11.4559155" y1="19.7501183" x2="47.2861862" y2="15.6496496">
		<stop offset="0.0032366" style="stop-color:#00C2FF"/>
		<stop offset="1" style="stop-color:#0096CC"/>
	</linearGradient>
	<path class="st23" d="M19.9165173,21.0880775c0.6470013,0,1.1715603-0.5245457,1.1715603-1.1715603   c0-0.6470127-0.524559-1.1715603-1.1715603-1.1715603H0.0195136C0.0170142,18.8750782,0,19.0014515,0,19.1321983v1.9558792   H19.9165173z"/>
	<linearGradient id="SVGID_24_" gradientUnits="userSpaceOnUse" x1="12.0359135" y1="26.7119846" x2="47.8661804" y2="22.611517">
		<stop offset="0.0032366" style="stop-color:#00C2FF"/>
		<stop offset="1" style="stop-color:#0096CC"/>
	</linearGradient>
	<path class="st24" d="M0,28.1174374h19.9165173c0.6470013,0,1.1715603-0.5245476,1.1715603-1.1715603   s-0.524559-1.1715603-1.1715603-1.1715603H0V28.1174374z"/>
	<linearGradient id="SVGID_25_" gradientUnits="userSpaceOnUse" x1="11.8991041" y1="33.757" x2="47.7293739" y2="29.6565323">
		<stop offset="0.0032366" style="stop-color:#00C2FF"/>
		<stop offset="1" style="stop-color:#0096CC"/>
	</linearGradient>
	<path class="st25" d="M0,35.1467972h19.9165173c0.6470013,0,1.1715603-0.5245476,1.1715603-1.1715622   c0-0.6470108-0.524559-1.1715584-1.1715603-1.1715584H0V35.1467972z"/>
</g>
</svg>