<?xml version="1.0" encoding="UTF-8"?>
<!-- Generator: Adobe Illustrator 25.0.0, SVG Export Plug-In . SVG Version: 6.00 Build 0)  -->
<svg version="1.1" id="svg14" inkscape:version="0.92.3 (2405546, 2018-03-11)" sodipodi:docname="SDA poste logo.svg" xmlns:cc="http://creativecommons.org/ns#" xmlns:dc="http://purl.org/dc/elements/1.1/" xmlns:inkscape="http://www.inkscape.org/namespaces/inkscape" xmlns:rdf="http://www.w3.org/1999/02/22-rdf-syntax-ns#" xmlns:sodipodi="http://sodipodi.sourceforge.net/DTD/sodipodi-0.dtd" xmlns:svg="http://www.w3.org/2000/svg" xmlns="http://www.w3.org/2000/svg" xmlns:xlink="http://www.w3.org/1999/xlink" x="0px" y="0px" viewBox="0 0 380 140" style="enable-background:new 0 0 380 140;" xml:space="preserve">
<style type="text/css">
	.st0{fill:#EEDC00;}
	.st1{fill-rule:evenodd;clip-rule:evenodd;fill:#0047BB;}
</style>
<sodipodi:namedview bordercolor="#666666" borderopacity="1" gridtolerance="10" guidetolerance="10" id="namedview16" inkscape:current-layer="svg14" inkscape:cx="180.85972" inkscape:cy="157.50489" inkscape:guide-bbox="true" inkscape:pageopacity="0" inkscape:pageshadow="2" inkscape:window-height="717" inkscape:window-maximized="1" inkscape:window-width="1366" inkscape:window-x="0" inkscape:window-y="0" inkscape:zoom="1.5104" objecttolerance="10" pagecolor="#ffffff" showgrid="false" showguides="true">
	</sodipodi:namedview>
<g id="layer1" transform="translate(40.766277,-34.512127)" inkscape:groupmode="layer" inkscape:label="Livello 1">
	<rect id="rect4496" x="-25.6" y="56" class="st0" width="349.6" height="97.1"/>
	<g id="g10" transform="matrix(0.28623924,0,0,-0.28573313,-35.053431,71.300443)">
		<g id="g12" transform="scale(0.1)">
			<path id="path16" inkscape:connector-curvature="0" class="st1" d="M5656.5-1392.9c-1.6-104.5,25.7-194.5,139.9-194.5     c85.2,0,138.2,40.3,149.5,115.8h283c-9.7-104.5-75.6-180.1-152.8-225.1c-70.7-45-160.8-62.7-255.6-62.7     c-323.1,0-451.7,138.3-451.7,455c0,255.6,191.3,400.3,434.1,400.3c328,0,432.5-188.1,432.5-488.8H5656.5z M5946-1228.8     c0,43.4-12.9,86.8-37,120.5c-24.1,33.8-59.5,54.7-106.1,51.4c-106.1-4.8-131.8-80.4-139.9-172h283"/>
			<path id="path18" inkscape:connector-curvature="0" class="st1" d="M1825.5-1735.2v1160.8h533.8c284.5,0,471.1-91.7,471.1-373     c0-281.4-186.5-373-471.1-373h-212.2v-414.8H1825.5z M2312.6-1095.4c127,4.8,180.1,62.7,180.1,147.9c0,85.1-53.1,143-180.1,147.9     H2147v-295.8L2312.6-1095.4"/>
			<path id="path20" inkscape:connector-curvature="0" class="st1" d="M3780-1331.8c0-297.4-217-427.6-469.5-427.6     c-252.4,0-469.4,130.2-469.4,427.6s217.1,427.7,469.4,427.7C3563-904.1,3780-1034.3,3780-1331.8z M3310.6-1582.5     c128.7,0,156,136.6,156,250.8s-27.3,250.8-156,250.8c-128.6,0-155.9-136.7-155.9-250.8C3154.7-1445.9,3182-1582.5,3310.6-1582.5"/>
			<path id="path22" inkscape:connector-curvature="0" class="st1" d="M4312.2-1177.4c0,27.3-4.8,51.4-19.3,67.5     c-16.1,17.7-41.8,28.9-83.6,28.9c-45,0-72.3-25.7-72.3-72.4c0-59.4,123.8-56.2,315.1-115.8c96.5-30.5,162.4-90,162.4-221.9     c0-213.8-201-268.5-385.9-268.5c-197.7,0-390.7,40.2-389,286.2H4129c-4.8-24.1,3.2-51.4,20.9-72.3c17.7-20.9,43.4-37,72.3-37     c59.5,0,102.9,22.5,102.9,73.9c0,143.1-477.5,57.9-477.5,350.5c0,199.3,212.2,254,373,254c191.4,0,368.2-49.8,381.1-273.3     L4312.2-1177.4"/>
			<path id="path24" inkscape:connector-curvature="0" class="st1" d="M4815.7-928.2V-806l305.4,115.7v-237.9H5298v-192.9h-176.9     V-1441c0-20.9-12.8-125.4,57.9-125.4c40.2,0,82,0,117.4,4.8v-181.6c-69.1-12.9-119-16.1-164.1-16.1     c-207.3,0-332.8,28.9-316.7,276.5v361.7H4658v192.9H4815.7"/>
			<path id="path26" inkscape:connector-curvature="0" class="st1" d="M6367.2-920.1h153.2v-809.6h-153.2V-920.1z M6352.7-565.3     h182.2v-166.1h-182.2V-565.3"/>
			<path id="path28" inkscape:connector-curvature="0" class="st1" d="M6766.2-920.1v172.5l153.1,48.4v-220.9l187.1,4.8v-114.5     l-187.1,1.7v-522.6c0-58,45.2-85.4,100.1-85.4c24.3,0,56.4,3.2,80.7,9.6v-117.7c-35.5-1.6-69.4-9.7-104.9-9.7     c-37.1,0-66.1,1.6-103.3,8.1c-24.1,4.8-64.5,17.8-90.3,53.2c-27.4,38.7-35.4,41.9-35.4,150v514.6l-138.7-1.7v114.5L6766.2-920.1"/>
			<path id="path30" inkscape:connector-curvature="0" class="st1" d="M7708-1229.8c0,140.4-8,222.6-171,222.6     c-77.4,0-150-45.2-151.5-129.1h-161.3c8,177.4,146.8,240.3,306.4,240.3c166.1,0,330.7-50,330.7-275.8v-387.1     c0-35.5,1.7-103.2,6.5-170.9h-103.2c-14.6,0-42-8.1-43.6,11.3c-3.2,37.1-6.5,72.5-8.1,109.7h-3.3     c-49.9-101.6-140.3-145.3-251.5-145.3c-140.3,0-282.3,72.6-282.3,230.6c0,227.5,201.7,293.5,393.5,293.5H7708V-1229.8z      M7554.9-1336.2c-93.6-4.8-217.8-38.7-217.8-156.4c0-100,69.3-150,159.6-150c180.7,0,214.5,156.4,211.3,306.4H7554.9"/>
			<path id="path32" inkscape:connector-curvature="0" class="st1" d="M8013.6-565.3h153.1v-1164.4h-153.1V-565.3"/>
			<path id="path34" inkscape:connector-curvature="0" class="st1" d="M8357.3-920.1h153.3v-809.6h-153.3V-920.1z M8342.8-565.3     H8525v-166.1h-182.3L8342.8-565.3"/>
			<path id="path36" inkscape:connector-curvature="0" class="st1" d="M9181-1229.8c0,140.4-8,222.6-171,222.6     c-77.4,0-150-45.2-151.5-129.1h-161.4c8.1,177.4,146.8,240.3,306.5,240.3c166.1,0,330.7-50,330.7-275.8v-387.1     c0-35.5,1.6-103.2,6.5-170.9h-103.3c-14.5,0-41.9-8.1-43.6,11.3c-3.2,37.1-6.4,72.5-8,109.7h-3.3     c-49.9-101.6-140.3-145.3-251.6-145.3c-140.3,0-282.2,72.6-282.2,230.6c0,227.5,201.6,293.5,393.5,293.5H9181V-1229.8z      M9027.7-1336.2c-93.5-4.8-217.7-38.7-217.7-156.4c0-100,69.3-150,159.7-150c180.6,0,214.5,156.4,211.3,306.4H9027.7"/>
			<path id="path38" inkscape:connector-curvature="0" class="st1" d="M9642.7-1039.5h3.2c51.7,101.6,164.5,143.6,245.1,143.6     c56.4,0,306.5-14.5,306.5-274.2v-559.6h-153.2v509.6c0,133.9-56.4,206.5-185.4,206.5c-0.1,0-83.9,4.8-148.4-59.7     c-22.6-22.6-64.5-58.1-64.5-216.1v-440.3h-153.2v809.6h150L9642.7-1039.5"/>
			<path id="path40" inkscape:connector-curvature="0" class="st1" d="M10480-1353.9c-11.3-141.9,46.8-288.7,203.2-288.7     c119.3,0,179.1,46.8,196.8,164.5h161.3c-24.1-183.9-166.1-275.9-359.7-275.9c-259.6,0-362.8,183.9-362.8,422.6     c0,237.1,119.3,435.5,375.7,435.5c241.9-4.9,356.5-158.1,356.5-382.3v-75.8L10480-1353.9z M10889.6-1247.5     c3.3,135.5-58.1,240.4-206.5,240.4c-127.4,0-203.2-108.1-203.2-240.4H10889.6"/>
		</g>
	</g>
</g>
</svg>