<?xml version="1.0" encoding="UTF-8"?>
<!-- Generator: Adobe Illustrator 24.1.3, SVG Export Plug-In . SVG Version: 6.00 Build 0)  -->
<svg version="1.1" id="Livello_1" xmlns="http://www.w3.org/2000/svg" xmlns:xlink="http://www.w3.org/1999/xlink" x="0px" y="0px" width="60.3779716px" height="60.4264145px" viewBox="0 0 60.3779716 60.4264145" style="enable-background:new 0 0 60.3779716 60.4264145;" xml:space="preserve">
<style type="text/css">
	.st0{fill:url(#SVGID_1_);}
	.st1{fill:url(#SVGID_2_);}
	.st2{fill:url(#SVGID_3_);}
	.st3{fill:url(#SVGID_4_);}
	.st4{fill:url(#SVGID_5_);}
	.st5{fill:url(#SVGID_6_);}
	.st6{fill:url(#SVGID_7_);}
	.st7{fill:url(#SVGID_8_);}
	.st8{fill:url(#SVGID_9_);}
	.st9{fill:url(#SVGID_10_);}
	.st10{fill:url(#SVGID_11_);}
	.st11{fill:url(#SVGID_12_);}
	.st12{fill:url(#SVGID_13_);}
	.st13{fill:url(#SVGID_14_);}
	.st14{fill:url(#SVGID_15_);}
	.st15{fill:url(#SVGID_16_);}
	.st16{fill:url(#SVGID_17_);}
	.st17{fill:url(#SVGID_18_);}
	.st18{fill:url(#SVGID_19_);}
	.st19{fill:url(#SVGID_20_);}
	.st20{fill:url(#SVGID_21_);}
	.st21{fill:url(#SVGID_22_);}
	.st22{fill:url(#SVGID_23_);}
	.st23{fill:url(#SVGID_24_);}
	.st24{fill:url(#SVGID_25_);}
	.st25{fill:url(#SVGID_26_);}
	.st26{fill:url(#SVGID_27_);}
	.st27{fill:url(#SVGID_28_);}
	.st28{fill:url(#SVGID_29_);}
	.st29{fill:url(#SVGID_30_);}
	.st30{fill:url(#SVGID_31_);}
	.st31{fill:url(#SVGID_32_);}
	.st32{fill:url(#SVGID_33_);}
	.st33{fill:url(#SVGID_34_);}
	.st34{fill:url(#SVGID_35_);}
	.st35{fill:url(#SVGID_36_);}
	.st36{fill:url(#SVGID_37_);}
	.st37{fill:url(#SVGID_38_);}
	.st38{fill:url(#SVGID_39_);}
	.st39{fill:url(#SVGID_40_);}
	.st40{fill:url(#SVGID_41_);}
	.st41{fill:url(#SVGID_42_);}
	.st42{fill:url(#SVGID_43_);}
	.st43{fill:url(#SVGID_44_);}
	.st44{fill:url(#SVGID_45_);}
	.st45{fill:url(#SVGID_46_);}
	.st46{fill:url(#SVGID_47_);}
	.st47{fill:url(#SVGID_48_);}
</style>
<g>
	<g>
		<g>
			<linearGradient id="SVGID_1_" gradientUnits="userSpaceOnUse" x1="50.3975868" y1="50.3975372" x2="-7.8713546" y2="-7.8714037">
				<stop offset="0.0032366" style="stop-color:#00C2FF"/>
				<stop offset="1" style="stop-color:#0096CC"/>
			</linearGradient>
			<path class="st0" d="M59.0010796,52.8971405l-4.3478241-4.347538c-2.1701698-2.1701698-2.7453728-5.4809608-1.3922501-8.2356873     c2.3422394-4.7685051,3.3761101-10.2864456,2.5882645-16.1070919     C54.1258202,11.4732523,43.6395378,1.3804594,30.8504314,0.1362364     C13.1926832-1.5816145-1.5786963,13.1867733,0.1356873,30.8448086     C1.3775939,43.635067,11.4693794,54.1236534,24.2033825,55.8488274     c5.8217964,0.7887077,11.3410282-0.2450142,16.1105442-2.5878334c2.7544365-1.3529778,6.0649414-0.7777748,8.2349701,1.3922539     l4.5096779,4.5093918c0.8429489,0.8422279,1.9473152,1.2637749,3.0516968,1.2637749     c1.2053452,0,2.4105644-0.5021133,3.2761002-1.5063438C60.8863869,57.1797905,60.6258316,54.5216026,59.0010796,52.8971405z"/>
			<linearGradient id="SVGID_2_" gradientUnits="userSpaceOnUse" x1="86.5032196" y1="86.5032806" x2="13.8652458" y2="13.8653078">
				<stop offset="0.0032366" style="stop-color:#00C2FF"/>
				<stop offset="1" style="stop-color:#0096CC"/>
			</linearGradient>
			<path class="st1" d="M57.5496979,51.445755c-1.8188362,2.2392311-3.8648453,4.2852402-6.1040764,6.1039314l1.6129532,1.6129532     c0.8429489,0.8422279,1.9473152,1.2637749,3.0516968,1.2637749c1.2053452,0,2.4105644-0.5021133,3.2761002-1.5063438     c1.5000153-1.7402802,1.239315-4.398468-0.3852921-6.0229301L57.5496979,51.445755z"/>
			<linearGradient id="SVGID_3_" gradientUnits="userSpaceOnUse" x1="62.292202" y1="62.292263" x2="51.8188477" y2="51.8189087">
				<stop offset="0.0032366" style="stop-color:#00C2FF"/>
				<stop offset="1" style="stop-color:#0096CC"/>
			</linearGradient>
			<path class="st2" d="M59.4216194,53.401989c-0.1310654-0.1743736-0.2637177-0.3480263-0.4205399-0.5048485l-1.4513817-1.4513855     c-1.8188362,2.2392311-3.8648453,4.2852402-6.1040764,6.1039314l1.6129532,1.6129532     c0.1028709,0.1028671,0.2204132,0.179554,0.3306198,0.2697601C55.5999374,57.6331329,57.6213455,55.612011,59.4216194,53.401989z     "/>
		</g>
	</g>
	<linearGradient id="SVGID_4_" gradientUnits="userSpaceOnUse" x1="30.1709442" y1="30.1709404" x2="-8.1785908" y2="-8.1785946">
		<stop offset="0" style="stop-color:#FFFFFF"/>
		<stop offset="0.5163966" style="stop-color:#E1E1E5"/>
		<stop offset="1" style="stop-color:#A0A3B3"/>
	</linearGradient>
	<path class="st3" d="M8.7939281,30.5887165C7.1798239,17.9017601,17.8961601,7.182445,30.5836926,8.7932119   c8.6483135,1.0979481,15.6324749,8.0802908,16.7326488,16.7283173c1.6141014,12.6869545-9.1022339,23.4063148-21.7897644,21.795517   C16.8782635,46.2191582,9.8941383,39.2367439,8.7939281,30.5887165z"/>
	<g>
		<g>
			<linearGradient id="SVGID_5_" gradientUnits="userSpaceOnUse" x1="14.0744143" y1="49.6100502" x2="35.4098892" y2="16.6656132">
				<stop offset="0" style="stop-color:#FFC95A"/>
				<stop offset="1" style="stop-color:#F7802F"/>
			</linearGradient>
			<polygon class="st4" points="16.7599163,21.5009117 16.7599163,34.543499 28.0551338,41.0647926 39.3503532,34.543499      39.3503532,21.5009117 28.0551338,14.9796114    "/>
			<linearGradient id="SVGID_6_" gradientUnits="userSpaceOnUse" x1="38.1880035" y1="23.3800678" x2="58.4775848" y2="27.1451359">
				<stop offset="0" style="stop-color:#0090CF"/>
				<stop offset="0.8456634" style="stop-color:#0071A1"/>
			</linearGradient>
			<polygon class="st5" points="28.0551338,28.0198841 39.3484001,21.4997196 28.0551338,14.9796114 16.7618561,21.4997196    "/>
			<linearGradient id="SVGID_7_" gradientUnits="userSpaceOnUse" x1="14.0623093" y1="31.3160782" x2="36.6507912" y2="31.3160782">
				<stop offset="0" style="stop-color:#0090CF"/>
				<stop offset="0.8456634" style="stop-color:#0071A1"/>
			</linearGradient>
			<polygon class="st6" points="28.0551338,41.1312447 39.3484001,34.6110802 16.7599163,21.5009117 16.7618561,34.6110802    "/>
		</g>
		<linearGradient id="SVGID_8_" gradientUnits="userSpaceOnUse" x1="52.1499901" y1="52.4008751" x2="28.8536129" y2="25.7316494">
			<stop offset="0" style="stop-color:#0090CF"/>
			<stop offset="0.8456634" style="stop-color:#0071A1"/>
		</linearGradient>
		<polygon class="st7" points="39.2908516,34.5778618 39.3503532,21.5009117 28.0551357,28.0909557 28.0551357,41.0647621   "/>
	</g>
</g>
</svg>